<?xml version="1.0" standalone="no"?>
<!DOCTYPE svg PUBLIC "-//W3C//DTD SVG 1.1//EN" "http://www.w3.org/Graphics/SVG/1.1/DTD/svg11.dtd" >
<!--
2013-9-30: Created.
-->
<svg>
<metadata>
Created by iconfont
</metadata>
<defs>

<font id="iconfont" horiz-adv-x="1024" >
  <font-face
    font-family="iconfont"
    font-weight="500"
    font-stretch="normal"
    units-per-em="1024"
    ascent="896"
    descent="-128"
  />
    <missing-glyph />
    
    <glyph glyph-name="x" unicode="x" horiz-adv-x="1001"
d="M281 543q-27 -1 -53 -1h-83q-18 0 -36.5 -6t-32.5 -18.5t-23 -32t-9 -45.5v-76h912v41q0 16 -0.5 30t-0.5 18q0 13 -5 29t-17 29.5t-31.5 22.5t-49.5 9h-133v-97h-438v97zM955 310v-52q0 -23 0.5 -52t0.5 -58t-10.5 -47.5t-26 -30t-33 -16t-31.5 -4.5q-14 -1 -29.5 -0.5
t-29.5 0.5h-32l-45 128h-439l-44 -128h-29h-34q-20 0 -45 1q-25 0 -41 9.5t-25.5 23t-13.5 29.5t-4 30v167h911zM163 247q-12 0 -21 -8.5t-9 -21.5t9 -21.5t21 -8.5q13 0 22 8.5t9 21.5t-9 21.5t-22 8.5zM316 123q-8 -26 -14 -48q-5 -19 -10.5 -37t-7.5 -25t-3 -15t1 -14.5
t9.5 -10.5t21.5 -4h37h67h81h80h64h36q23 0 34 12t2 38q-5 13 -9.5 30.5t-9.5 34.5q-5 19 -11 39h-368zM336 498v228q0 11 2.5 23t10 21.5t20.5 15.5t34 6h188q31 0 51.5 -14.5t20.5 -52.5v-227h-327z" />
    

    
    <glyph glyph-name="zhuye" unicode="&#58922;" d="M-3.414016-40.912128M156.437504 261.437184 156.437504-148.229376 402.612224-148.229376 402.612224 128.5312 618.62912 128.5312 618.62912-148.229376 865.261568-148.229376 865.261568 261.437184 1002.271744 261.437184 510.849024 745.555712 18.970624 261.437184ZM1024.651264-40.912128"  horiz-adv-x="1024" />

    
    <glyph glyph-name="tushu1" unicode="&#58902;" d="M90.0352 608.366336c-13.216768 0-23.954432-10.73664-23.954432-23.929856l0-569.376768c0-6.760448 2.870272-13.253632 7.91552-17.80224 4.984832-4.473856 11.101184-6.735872 18.518016-6.030336 0.4864 0.048128 53.087232 5.3504 121.945088 5.3504 70.4512 0 169.293824-5.665792 240.098304-32.587776 2.735104-1.04448 5.593088-1.580032 8.4992-1.580032 3.818496 0 7.380992 1.168384 10.663936 2.845696 7.003136-2.72384 14.01856-5.569536 21.059584-8.65792 2.588672-1.14176 5.337088-1.726464 8.158208-1.726464 3.574784 0 7.016448 1.216512 10.15296 3.040256 3.137536-1.823744 6.5792-3.040256 10.15296-3.040256 2.808832 0 5.568512 0.58368 8.134656 1.701888 7.04 3.111936 14.08 5.957632 21.08416 8.682496 3.270656-1.678336 6.846464-2.845696 10.651648-2.845696 2.9184 0 5.763072 0.535552 8.522752 1.580032 70.779904 26.921984 169.622528 32.587776 240.086016 32.587776 68.857856 0 121.458688-5.302272 122.017792-5.3504 6.846464-0.608256 13.461504 1.55648 18.4576 6.030336 5.033984 4.547584 7.904256 11.041792 7.904256 17.80224L960.103424 584.43648c0 13.193216-10.748928 23.929856-23.954432 23.929856-13.193216 0-23.942144-10.73664-23.942144-23.929856l0-543.356928c-16.18432 1.168384-37.571584 2.36032-62.389248 3.040256L849.8176 616.099584c0 12.329984-8.438784 22.5792-19.637248 23.831552-17.765376 1.957888-35.90656 2.966528-53.926912 2.966528-147.187712 0-250.591232-65.161216-263.163904-73.46688-12.583936 8.30464-115.975168 73.46688-263.16288 73.46688-18.020352 0-36.161536-1.009664-53.9392-2.966528-11.186176-1.252352-19.62496-11.502592-19.62496-23.831552L176.362496 44.119808c-24.81664-0.679936-46.205952-1.871872-62.401536-3.040256L113.96096 584.43648C113.965056 597.629696 103.228416 608.366336 90.0352 608.366336zM545.097728 534.097664c28.392448 16.37888 116.31616 60.894208 231.159808 60.894208 9.959424 0 19.989504-0.340992 29.888512-0.985088L806.146048 51.635968c-11.54048 0.704512-23.673856 1.07008-36.161536 1.07008-54.85056 0-137.715712-6.956032-224.88576-39.47008L545.098752 534.097664zM220.04224 594.00576c9.885696 0.644096 19.9168 0.985088 29.888512 0.985088 114.832384 0 202.768384-44.515328 231.159808-60.894208L481.09056 13.235968c-87.182336 32.514048-170.0352 39.47008-224.88576 39.47008-12.48768 0-24.623104-0.365568-36.161536-1.07008L220.043264 594.00576z"  horiz-adv-x="1024" />

    
    <glyph glyph-name="tushu" unicode="&#58908;" d="M90.0352 608.366336c-13.216768 0-23.954432-10.73664-23.954432-23.929856l0-569.376768c0-6.760448 2.870272-13.253632 7.91552-17.80224 4.984832-4.473856 11.101184-6.735872 18.518016-6.030336 0.4864 0.048128 53.087232 5.3504 121.945088 5.3504 70.4512 0 169.293824-5.665792 240.098304-32.587776 2.735104-1.04448 5.593088-1.580032 8.4992-1.580032 3.818496 0 7.380992 1.168384 10.663936 2.845696 7.003136-2.72384 14.01856-5.569536 21.059584-8.65792 2.588672-1.14176 5.337088-1.726464 8.158208-1.726464 3.574784 0 7.016448 1.216512 10.15296 3.040256 3.137536-1.823744 6.5792-3.040256 10.15296-3.040256 2.808832 0 5.568512 0.58368 8.134656 1.701888 7.04 3.111936 14.08 5.957632 21.08416 8.682496 3.270656-1.678336 6.846464-2.845696 10.651648-2.845696 2.9184 0 5.763072 0.535552 8.522752 1.580032 70.779904 26.921984 169.622528 32.587776 240.086016 32.587776 68.857856 0 121.458688-5.302272 122.017792-5.3504 6.846464-0.608256 13.461504 1.55648 18.4576 6.030336 5.033984 4.547584 7.904256 11.041792 7.904256 17.80224L960.103424 584.43648c0 13.193216-10.748928 23.929856-23.954432 23.929856-13.193216 0-23.942144-10.73664-23.942144-23.929856l0-543.356928c-16.18432 1.168384-37.571584 2.36032-62.389248 3.040256L849.8176 616.099584c0 12.329984-8.438784 22.5792-19.637248 23.831552-17.765376 1.957888-35.90656 2.966528-53.926912 2.966528-147.187712 0-250.591232-65.161216-263.163904-73.46688-12.583936 8.30464-115.975168 73.46688-263.16288 73.46688-18.020352 0-36.161536-1.009664-53.9392-2.966528-11.186176-1.252352-19.62496-11.502592-19.62496-23.831552L176.362496 44.119808c-24.81664-0.679936-46.205952-1.871872-62.401536-3.040256L113.96096 584.43648C113.965056 597.629696 103.228416 608.366336 90.0352 608.366336zM545.097728 534.097664c28.392448 16.37888 116.31616 60.894208 231.159808 60.894208 9.959424 0 19.989504-0.340992 29.888512-0.985088L806.146048 51.635968c-11.54048 0.704512-23.673856 1.07008-36.161536 1.07008-54.85056 0-137.715712-6.956032-224.88576-39.47008L545.098752 534.097664zM220.04224 594.00576c9.885696 0.644096 19.9168 0.985088 29.888512 0.985088 114.832384 0 202.768384-44.515328 231.159808-60.894208L481.09056 13.235968c-87.182336 32.514048-170.0352 39.47008-224.88576 39.47008-12.48768 0-24.623104-0.365568-36.161536-1.07008L220.043264 594.00576z"  horiz-adv-x="1024" />

    
    <glyph glyph-name="dianpu" unicode="&#58912;" d="M829.220317 771.575176l-7.074116 10.656711L211.680609 782.231887l-7.141654-9.141194C48.983109 574.501752 70.507332 453.583798 97.154225 399.139815c26.740014-54.537104 80.878029-89.831958 137.977491-89.831958l5.146207 0c72.043826 2.867304 119.953999 38.642089 145.190777 64.548108 22.793122-25.90602 65.699328-60.541865 132.855844-60.541865 70.02382 0 113.703645 37.70167 135.579885 63.877843 30.546713-24.907273 90.183975-65.721841 152.687518-65.721841 40.980343 0 76.085886 16.799618 104.681154 49.907667C1017.364371 484.917434 836.949348 759.933021 829.220317 771.575176zM874.641809 392.396227c-19.22383-22.49841-41.49916-33.236985-68.14503-33.236985-60.246129 0-122.821303 54.56064-136.7792 67.51979L669.717579 590.245318c0.023536 0.458441 0.258896 0.799202 0.258896 1.245364 0 13.252839-10.714016 23.967878-23.920806 23.967878-13.227256 0-23.919782-10.715039-23.919782-23.967878l-0.258896 0 0-177.851641c-13.063527-17.811668-46.172599-52.634778-103.552447-52.634778-64.784492 0-98.525967 44.292785-107.666138 58.367339l0 172.120103c0 13.252839-10.715039 23.967878-23.898293 23.967878-13.228279 0-23.943318-10.715039-23.943318-23.967878l0-171.250292c-11.725042-15.249309-52.070936-60.389392-124.465756-63.37233l-3.219321 0 0 0.047072c-31.933293 0-73.688279 19.585057-95.000678 63.232137-21.358447 43.540655-36.843116 141.948943 94.953605 314.397526l561.097208 0C845.996398 655.826965 940.480306 468.774779 874.641809 392.396227zM831.288418 282.16773c-13.277398 0-24.086581-10.761088-24.13263-24.037463l0-0.045025c0-0.048095 0-0.048095 0-0.095167 0 0 0-0.023536 0-0.059352l0-173.505659c0-26.693965-21.641903-48.312332-48.263214-48.312332L552.089555 36.112732c-0.022513 0-0.022513 0-0.046049 0L264.081049 36.112732c-26.623357 0-48.26526 21.618367-48.26526 48.312332l0 173.634596c-0.023536 13.323447-10.80816 24.108071-24.109094 24.108071-13.299911 0-24.084535-10.784624-24.131607-24.108071l0-178.452321c0-50.730405 41.026392-91.804892 91.664699-91.804892l504.492002 0c50.637284 0 91.662653 41.074487 91.662653 91.804892L855.394443 258.130268C855.325881 271.407666 844.562746 282.16773 831.288418 282.16773z"  horiz-adv-x="1024" />

    
    <glyph glyph-name="bijibendiannao" unicode="&#58892;" d="M870.388736 81.086208 870.388736 555.460352c0 17.752064-13.232128 32.100352-29.575168 32.100352L182.638592 587.560704c-16.34304 0-29.575168-14.348288-29.575168-32.100352l0-474.374144L56.066048 81.086208l0-39.238656c0-17.752064 13.25056-32.100352 29.575168-32.100352l96.999424 0 658.174976 0 100.219904 0c16.34304 0 29.5936 14.348288 29.5936 32.100352l0 39.238656L870.388736 81.086208 870.388736 81.086208zM573.924352 67.614464 452.769792 67.614464l0 20.830208 121.15456 0L573.924352 67.614464zM809.536512 120.086272 213.93408 120.086272 213.93408 521.382656l595.60448 0L809.536512 120.086272 809.536512 120.086272z"  horiz-adv-x="1024" />

    
    <glyph glyph-name="shuma" unicode="&#58909;" d="M520.295 41.13c-104.591 0-189.698 85.059-189.698 189.788 0 104.749 85.090 189.984 189.698 189.984 104.647 0 189.762-85.236 189.762-189.984 0-104.727-85.123-189.788-189.762-189.788v0zM520.295 386.546c-85.726 0-155.443-69.868-155.443-155.653 0-85.726 69.734-155.443 155.443-155.443 85.772 0 155.491 69.734 155.491 155.443 0 85.794-69.734 155.653-155.491 155.653v0zM982.73-74.704h-924.896c-9.471 0-17.113 7.63-17.113 17.164v577.109c0 9.441 7.648 17.138 17.113 17.138h280.011l52.103 104.306c2.908 5.804 8.842 9.573 15.34 9.573h230.123c6.486 0 12.415-3.771 15.318-9.573l52.114-104.306h279.91c9.477 0 17.123-7.703 17.123-17.138v-577.109c-0.002-9.522-7.66-17.164-17.138-17.164v0zM965.599 502.39h-273.325c-6.5 0-12.435 3.673-15.34 9.507l-52.129 104.347h-208.985l-52.103-104.347c-2.916-5.839-8.842-9.507-15.34-9.507h-273.403v-542.813h890.628v542.813z"  horiz-adv-x="1024" />

    
    <glyph glyph-name="xin" unicode="&#58951;" d="M511.998-66.5c-10.589 0-21.187 2.499-30.647 7.226-0.538 0.267-1.458 0.7-2.726 1.303-86.698 41.184-172.197 95.96-240.748 154.241-61.759 52.506-110.94 108.47-146.178 166.338-44.48 73.045-67.034 149.546-67.034 227.379 0 163.749 133.227 296.967 296.984 296.967 69.872 0 137.312-24.795 190.344-69.074 53.036 44.278 120.481 69.074 190.359 69.074 163.758 0 296.984-133.219 296.984-296.967 0-77.844-22.56-154.357-67.053-227.412-35.246-57.873-84.438-113.842-146.21-166.352C717.51 37.941 632.02-16.824 545.35-57.983c-1.261-0.599-2.176-1.029-2.715-1.297C533.183-64.002 522.585-66.5 511.998-66.5zM321.649 706.954c-119.646 0-216.984-97.331-216.984-216.967 0-260.572 310.453-429.087 407.335-475.244 96.907 46.159 407.336 214.643 407.336 475.244 0 119.636-97.339 216.967-216.984 216.967-61.133 0-119.709-25.97-160.708-71.252l-29.653-32.749-29.651 32.75C441.343 680.984 382.773 706.954 321.649 706.954z"  horiz-adv-x="1024" />

    
    <glyph glyph-name="qianggou" unicode="&#58994;" d="M220.499461 455.291832c-2.534729 0-5.104251 0.629333-7.474228 1.953492-7.399527 4.136204-10.04682 13.487176-5.91164 20.887726 43.500746 77.842903 104.047728 113.237017 147.181107 129.222083 46.947242 17.398252 83.644025 16.229636 85.185124 16.169261 8.470929-0.320295 15.078417-7.448646 14.757099-15.919575-0.320295-8.458649-7.410783-15.057951-15.881712-14.759145-0.423649 0.014326-33.234939 0.862647-74.640977-14.743796-55.116295-20.773116-98.787934-59.445904-129.801275-114.944915C231.101937 458.12639 225.880005 455.292855 220.499461 455.291832zM800.087812 455.291832c-5.380544 0-10.601452 2.834558-13.412474 7.865131-31.262004 55.94108-75.353199 94.770434-131.049708 115.411543-41.279149 15.297404-73.031317 14.292518-73.355705 14.278191-8.441253-0.327458-15.597233 6.287193-15.919575 14.757099-0.320295 8.470929 6.287193 15.59928 14.758122 15.919575 1.535983 0.056282 38.237883 1.227967 85.184101-16.169261 43.132356-15.985066 103.679337-51.378158 147.180084-129.222083 4.136204-7.40055 1.488911-16.751522-5.910617-20.887726C805.192064 455.921165 802.622542 455.292855 800.087812 455.291832zM429.446307 140.317161c-3.770883 0-7.54893 1.381463-10.512425 4.167926-6.175653 5.808286-6.473435 15.522532-0.665149 21.697161l78.776158 83.761706L497.044892 399.249445c0 8.477069 6.872524 15.349593 15.349593 15.349593s15.349593-6.872524 15.349593-15.349593l0-161.473625-87.11201-92.625584C437.610244 141.939101 433.532369 140.317161 429.446307 140.317161zM517.647115-12.054155c-73.683163 0-142.955876 28.694529-195.057511 80.795141-52.101635 52.102658-80.796164 121.376395-80.796164 195.059558 0 73.683163 28.694529 142.955876 80.796164 195.058534s121.374348 80.797188 195.057511 80.797188c73.683163 0 142.956899-28.694529 195.059558-80.797188 52.101635-52.101635 80.795141-121.375371 80.795141-195.058534 0-73.684186-28.693506-142.956899-80.795141-195.059558C660.605038 16.640374 591.331301-12.054155 517.647115-12.054155zM517.647115 511.537857c-136.602168 0-247.735267-111.135146-247.735267-247.737314 0-136.603191 111.134123-247.735267 247.735267-247.735267 136.604214 0 247.736291 111.1331 247.736291 247.735267C765.384429 400.403734 654.252353 511.537857 517.647115 511.537857zM296.09416-52.871793c-2.883677 0-5.8001 0.811482-8.394181 2.51017-7.092535 4.64274-9.077749 14.157441-4.433986 21.249977l57.746192 88.194668c4.64274 7.092535 14.156418 9.079796 21.249977 4.432962 7.092535-4.64274 9.077749-14.157441 4.433986-21.249977l-57.746192-88.194668C306.004881-50.427114 301.098127-52.871793 296.09416-52.871793zM746.016313-52.871793c-5.003967 0-9.909697 2.444679-12.855796 6.943133l-57.747215 88.194668c-4.643764 7.092535-2.659573 16.606213 4.432962 21.249977 7.093559 4.64274 16.606213 2.659573 21.249977-4.432962l57.747215-88.194668c4.643764-7.092535 2.659573-16.606213-4.432962-21.249977C751.817436-52.059288 748.901013-52.871793 746.016313-52.871793zM685.632037 53.824251"  horiz-adv-x="1024" />

    
    <glyph glyph-name="yuan" unicode="&#58935;" d="M521.547927 628.947381c-165.65958 0-300.425229-134.765649-300.425229-300.425229 0-165.65958 134.765649-300.425229 300.425229-300.425229 165.65958 0 300.425229 134.765649 300.425229 300.425229C821.973156 494.181732 687.207507 628.947381 521.547927 628.947381zM521.547927 50.476779c-153.374985 0-278.045374 124.670388-278.045374 278.045374 0 153.374985 124.670388 278.045374 278.045374 278.045374 153.253356 0 278.045374-124.670388 278.045374-278.045374C799.593301 175.147167 674.801283 50.476779 521.547927 50.476779z"  horiz-adv-x="1024" />

    
    <glyph glyph-name="icon033" unicode="&#58923;" d="M446.718 462.842h-201.641c-52.311 0-94.86 42.578-94.86 94.889v46.098c0 52.313 42.55 94.892 94.86 94.892h201.641c52.311 0 94.877-42.578 94.877-94.892v-46.098c0-52.31-42.566-94.889-94.877-94.889zM245.077 657.949c-29.847 0-54.12-24.273-54.12-54.12v-46.098c0-29.843 24.273-54.117 54.12-54.117l201.641 0c29.846 0 54.135 24.273 54.135 54.117l-0 46.098c0 29.846-24.289 54.12-54.135 54.12h-201.641zM530.207-112.898h-368.635c-53.474 0-96.971 45.365-96.971 101.105l-0 262.328c0 17.509 4.514 34.833 13.102 50.292 0.533 1.313 1.238 2.601 2.081 3.824 1.27 1.99 2.571 3.795 3.918 5.602l122.422 173.651c3.812 5.388 10.024 8.633 16.653 8.633h246.238c6.614 0 12.826-3.216 16.638-8.633l124.062-175.701c11.525-17.387 17.431-37.158 17.431-57.667v-262.328c-0.002-55.742-43.482-101.106-96.941-101.106zM114.74 283.53c-0.169-0.307-0.336-0.611-0.504-0.887-5.817-9.827-8.893-20.938-8.893-32.109v-262.328c0-33.272 25.222-60.332 56.229-60.332h368.635c30.99 0 56.197 27.059 56.197 60.332v262.329c0 12.487-3.564 24.487-10.316 34.68l-117.631 166.547h-225.118l-115.721-164.16c-0.153-0.245-1.868-2.664-2.878-4.072zM372.138 191.763h-264.914c-11.247 0-20.371 9.122-20.371 20.386 0 11.263 9.125 20.383 20.371 20.383h264.914c11.249 0 20.371-9.121 20.371-20.383-0.001-11.265-9.122-20.386-20.371-20.386zM372.138 6.634c-11.249 0-20.371 9.122-20.371 20.386l-0 185.129c0 11.263 9.121 20.383 20.371 20.383s20.371-9.121 20.371-20.383v-185.129c-0.001-11.265-9.122-20.386-20.371-20.386zM372.138 6.634h-277.693c-11.249 0-20.371 9.122-20.371 20.386s9.121 20.386 20.371 20.386h277.693c11.249 0 20.371-9.121 20.371-20.386s-9.122-20.386-20.371-20.386zM846.82-122.721c-12.124 0-23.938 2.417-35.128 7.253l-165.323 71.321c-44.979 19.437-65.779 71.809-46.386 116.777 14.033 32.598 46.067 53.658 81.606 53.658 12.136 0 23.966-2.448 35.168-7.285l165.31-71.29c21.778-9.368 38.597-26.693 47.368-48.763 8.754-22.070 8.417-46.221-0.965-67.983-14.048-32.631-46.097-53.689-81.649-53.689zM681.587 85.547c-19.255 0-36.594-11.387-44.186-29.050-10.5-24.364 0.765-52.708 25.116-63.237l165.292-71.321c23.891-10.287 53.063 1.466 63.225 25.128 5.081 11.817 5.266 24.888 0.521 36.854-4.746 11.939-13.836 21.305-25.605 26.386l-165.354 71.29c-6.091 2.633-12.472 3.95-19.008 3.95zM749.618-60.095c-2.708 0-5.463 0.552-8.112 1.715-10.316 4.47-15.046 16.468-10.559 26.784l38.293 88.034c4.482 10.347 16.466 15.090 26.812 10.559 10.316-4.47 15.046-16.468 10.561-26.784l-38.291-88.034c-3.338-7.683-10.836-12.275-18.703-12.275zM870.557 135.074c-27.931 0-53.69 12.732-70.647 34.924l-109.248 143.072c-14.415 18.853-20.616 42.18-17.478 65.72 3.153 23.536 15.29 44.415 34.191 58.83 37.819 28.955 95.688 21.091 124.537-16.682l109.201-143.1c14.431-18.856 20.643-42.211 17.478-65.782-3.169-23.508-15.321-44.384-34.206-58.771-15.582-11.907-34.207-18.211-53.828-18.211zM761.233 415.12c-10.607 0-20.678-3.426-29.141-9.886-10.24-7.805-16.804-19.13-18.518-31.865-1.699-12.732 1.652-25.345 9.456-35.569l109.248-143.068c15.625-20.477 46.879-24.734 67.388-9.031 10.253 7.805 16.819 19.070 18.534 31.805 1.714 12.732-1.639 25.373-9.459 35.598l-109.214 143.1c-9.184 12.030-23.142 18.916-38.294 18.916zM782.905 246.033c-6.153 0-12.243 2.786-16.24 8.081-6.811 8.94-5.050 21.734 3.902 28.53l76.465 58.034c8.967 6.796 21.763 5.081 28.542-3.918 6.811-8.937 5.053-21.731-3.902-28.527l-76.461-58.037c-3.688-2.783-8.020-4.163-12.305-4.163z"  horiz-adv-x="1024" />

    
    <glyph glyph-name="xing" unicode="&#58936;" d="M648.119679 452.10935 957.096752 404.950284 733.588259 175.855562 786.391882-147.733301 510.022461 4.97673 233.708298-147.848934 286.398334 175.738905 62.832536 404.836697 371.751281 452.051021 509.905804 746.414259Z"  horiz-adv-x="1024" />

    
    <glyph glyph-name="yundongxie" unicode="&#58944;" d="M1788.620152-120.276562 17.670751-120.276562l-7.613042 42.880686c-20.087423 96.493009-15.40953 246.873511 63.839481 344.329616 50.677174 62.326045 125.431739 96.905764 216.100313 96.905764 177.851658 0 530.023624 296.908622 650.685747 411.058384l38.844857 37.102112 135.521312-195.829443L1008.971316 535.178801c23.389465-60.170545 92.090286-194.13256 239.81081-194.13256 175.283403 0 192.206369 176.29236 193.58222 196.425645l9.814403 42.788963L1788.620152 580.444296 1788.620152-120.276562zM94.122199-28.553169 1696.896759-28.553169l0 504.478659-168.771042 0c-20.54604-91.723393-95.484052-232.931555-279.29773-232.931555-205.827293 0-311.171609 193.215326-338.092425 293.744165l-7.934073 31.231815 87.091361 67.462555L964.48547 672.534582c-120.295229-108.554635-462.194175-398.996757-674.487967-398.996757-63.931205 0-111.352199-26.416337-144.968822-67.737725C97.653549 147.509883 85.591923 63.170223 94.122199-28.553169zM45.875694-120.276562l1696.882762 0 0-91.723393-1696.882762 0 0 91.723393Z"  horiz-adv-x="1789" />

    
    <glyph glyph-name="demo05" unicode="&#58938;" d="M953.472 333.216l-165.248-141.568c-10.432-10.176-15.168-24.768-12.672-39.104l39.04-227.456c3.072-18.048 0-30.912-14.784-41.728-8.384-6.08-18.304-9.152-28.288-9.152-7.616 0-15.296 1.856-22.336 5.504l-208.64 112.448c-12.864 6.784-28.224 6.784-41.088 0l-199.872-112.448C283.392-128.8 263.808-127.328 248.96-116.576c-14.784 10.752-26.56 23.68-23.488 41.728L273.28 157.28c2.432 14.336-2.304 28.928-12.672 39.04L86.528 333.216c-13.12 12.736-17.856 31.872-12.224 49.28C80 399.904 95.04 412.576 113.152 415.2l226.368 39.744c14.4 2.112 26.816 11.136 33.216 24.128l104.192 219.904C484.992 715.36 501.696 725.792 520 725.792c18.304 0 34.944-10.368 43.072-26.816l100.096-219.904c6.4-13.056 18.88-22.08 33.216-24.128L926.912 415.2c18.048-2.624 33.152-15.296 38.784-32.704C971.328 365.088 966.528 346.016 953.472 333.216L953.472 333.216zM953.472 333.216"  horiz-adv-x="1024" />

    
    <glyph glyph-name="sudu" unicode="&#58887;" d="M503.641123 715.530878c-229.354642 0-415.95248-186.598862-415.95248-415.95248 0-229.361805 186.598862-415.95248 415.95248-415.95248 229.361805 0 415.959643 186.590676 415.959643 415.95248C919.600767 528.933039 733.002928 715.530878 503.641123 715.530878zM503.641123-76.759853c-207.512171 0-376.338251 168.825057-376.338251 376.338251 0 207.512171 168.82608 376.338251 376.338251 376.338251 207.519334 0 376.345414-168.82608 376.345414-376.338251C879.986537 92.066227 711.160457-76.759853 503.641123-76.759853zM646.740262 293.110079l-42.902112 26.222221c0.007163 0.007163 0.01535 0.007163 0.022513 0.007163l-1.655709 0.99056-67.862597 41.48688 29.300326 123.649158c0.766456 2.066055 1.207501 4.217045 1.222851 6.383384 0.734734 8.975419-5.099135 17.400299-14.143115 19.544125-8.449439 1.99647-16.867156-2.166339-20.682042-9.54847L390.793986 366.319451c-6.02011-5.864568-7.258311-14.653745-3.799536-21.710464 0.828878-3.645017 2.715855-7.087419 5.726421-9.757225l18.375509-16.33299c-0.030699 0-0.062422-0.01535-0.093121-0.01535l61.882396-55.057967L435.778526 106.697459c-0.913812-3.830235-0.541329-7.636934 0.796132-11.041474-0.038886-4.711302 1.701758-9.44 5.253654-13.091156 7.134491-7.335059 18.863626-7.489578 26.198685-0.340761l140.152017 136.391367c1.051959 1.029446 1.918699 2.166339 2.676969 3.357468l38.879496 37.851073c3.922333 3.821025 5.725398 8.975419 5.516644 14.058181C656.621307 281.225401 653.495106 288.977969 646.740262 293.110079zM609.509313 272.412688 484.243331 150.482685l21.494547 90.757027c0.01535 0 0.01535 0.008186 0.030699 0.008186l3.202948 13.624299 1.981121 8.387018c2.63092 6.978948 0.913812 15.118326-4.990664 20.380166l-10.359952 9.223059c0.016373 0.030699 0.030699 0.076748 0.062422 0.107447l-66.432015 59.027371 83.685981 81.45722-18.23634-77.240175c-2.081405-8.804527 2.530636-17.610076 10.514471-21.169135l64.373123-38.399565c0.047072 0.038886 0.084934 0.069585 0.12382 0.10847L609.509313 272.412688z"  horiz-adv-x="1024" />

    
    <glyph glyph-name="guang1" unicode="&#59011;" d="M114.233-189.427c-9.074 0-17.772 3.878-23.866 10.643-6.082 6.871-8.955 15.907-7.956 24.878l75.759 662.777c1.895 16.159 15.546 28.314 31.755 28.314h65.617c17.628 0 31.968-14.341 31.968-31.968s-14.341-31.968-31.968-31.968h-37.102l-68.425-598.867h723.66l-68.423 598.867h-47.968c-17.628 0-31.968 14.341-31.968 31.968s14.341 31.968 31.968 31.968h76.418c16.209 0 29.857-12.156 31.748-28.276l75.761-662.777c1.003-9.011-1.868-18.046-7.87-24.831-6.181-6.851-14.854-10.727-23.878-10.727h-795.231zM511.849 5.676l-149.361-78.571 28.54 166.363-120.89 117.821 167.029 24.265 74.679 151.383 74.679-151.383 167.029-24.265-120.89-117.821 28.532-166.363-149.35 78.571zM576.576 43.644l-12.356 72.048 52.313 51.007-72.319 10.525-32.369 65.58-32.366-65.509-72.332-10.53 52.334-51.075-12.358-72.043 64.73 34.042 64.724-34.042zM682.253 359.77c-28.005 0-50.79 22.788-50.79 50.796 0 15.417 7.085 29.949 18.893 39.503v111.95c0 76.372-62.133 138.506-138.506 138.506s-138.506-62.133-138.506-138.506v-111.951c11.804-9.554 18.886-24.084 18.886-39.502 0-28.009-22.784-50.796-50.79-50.796-27.954 0-50.767 22.769-50.857 50.755 0 15.414 7.084 29.947 18.889 39.527v111.964c0 111.588 90.785 202.373 202.378 202.373 53.982 0 104.779-21.073 143.033-59.334 38.258-38.268 59.308-89.069 59.275-143.047v-111.941c11.808-9.555 18.893-24.086 18.893-39.502-0.001-28.009-22.789-50.796-50.796-50.796zM421.241 473.246c-17.629 0-31.969 14.341-31.969 31.968s14.342 31.968 31.969 31.968h184.592c17.626 0 31.964-14.341 31.964-31.968s-14.338-31.968-31.964-31.968h-184.592z"  horiz-adv-x="1024" />

    
    <glyph glyph-name="qiu" unicode="&#58883;" d="M512-192.3904c-271.5136 0-492.3904 220.8256-492.3904 492.3392 0 271.4624 220.8768 492.4416 492.3904 492.4416 271.4624 0 492.3904-220.9792 492.3904-492.4416C1004.3904 28.4352 783.5136-192.3904 512-192.3904zM528.7936-176.7744l24.6784 30.7712c50.4832 62.8736 91.0848 126.9248 120.576 190.4128l7.3216 15.5648-16.64 3.84c-39.936 9.4208-80.8448 14.9504-121.5488 16.5376l-14.4384 0.5632L528.7424-176.7744zM481.1264 79.6352c-39.7312-2.304-80.128-8.448-120.1664-18.2272l-16.4864-4.0448 7.2192-15.36c29.44-62.8224 69.632-126.0032 119.4496-187.9552l24.6784-30.8224 0 257.28L481.1264 79.6352zM301.056 43.8976c-36.5056-12.3904-73.5232-28.1088-109.9264-46.7456l-16.9984-8.7552 13.5168-13.4656c58.2656-58.1632 130.9184-99.6352 210.1248-120.0128l37.3248-9.6256-22.6816 31.1808c-38.4512 52.9408-70.1952 106.752-94.208 159.8976l-5.2224 11.52L301.056 43.8976zM707.6864 39.2384c-24.2176-54.016-56.2688-108.6976-95.2832-162.4576l-22.7328-31.3344 37.4272 9.728c79.7184 20.5824 152.6784 62.6688 211.0976 121.6l13.1072 13.2096-16.3328 8.7552c-35.4304 19.2-72.5504 35.328-110.1312 48.0256l-11.8784 3.9936L707.6864 39.2384zM766.72 270.2016c-3.84-59.136-16.5376-119.04-37.7344-178.0736l-4.7616-13.312 13.4144-4.5056c42.0864-14.3872 83.5584-32.8192 123.2384-54.6304l10.496-5.888 7.2704 9.6256c53.8112 71.2192 85.504 155.904 91.5968 244.8384l1.024 14.848-203.6736 0L766.72 270.2016zM53.8112 268.3072c6.0928-89.0368 37.8368-173.7216 91.6992-244.8896l7.1168-9.5232 10.4448 5.5808c41.3184 21.8624 83.1488 40.0384 124.3648 54.016l13.3632 4.608L295.936 91.36c-21.3504 59.2384-34.1504 119.3472-38.0416 178.8416l-0.8192 12.9536-204.288 0L53.8112 268.3072zM289.7408 268.1536c4.4544-56.064 17.2544-112.9472 38.0928-169.1136l4.3008-11.7248 12.0832 3.072c45.9776 11.7248 92.5184 18.688 138.3936 20.8384l13.2096 0.6144 0 171.3664L288.512 283.2064 289.7408 268.1536zM528.7936 111.84l13.312-0.5632c46.4384-1.8944 93.0816-8.704 138.5984-20.224l12.0832-3.0208 4.352 11.7248c20.5312 55.9616 33.3312 112.5376 37.7344 168.3456l1.1776 15.0016-207.3088 0L528.7424 111.84zM861.3888 579.3984c-37.9904-20.992-77.5168-38.8096-117.6064-52.8384l-13.0048-4.5568 4.4032-12.9024c19.6608-58.88 30.6176-119.296 32.512-179.5584l0.4608-13.4144 203.1104 0-0.9728 14.848c-5.9392 88.7808-37.4784 173.4656-90.9824 244.5824l-7.2704 9.6768L861.3888 579.3984zM689.2032 509.8688c-48.6912-12.9024-98.2016-20.4288-147.0976-22.4768l-13.312-0.5632 0-170.6496 208.128 0-0.4608 14.2336c-1.5872 57.344-11.8784 114.688-30.5152 170.4448l-4.1472 12.3392L689.2032 509.8688zM318.9248 501.5744c-18.8416-55.9104-29.184-113.5104-30.8224-171.2128L287.744 316.128l208.0768 0L495.8208 486.9312 482.6112 487.5456C433.5616 489.952 384.1024 497.632 335.6672 510.5856L323.072 513.9648 318.9248 501.5744zM144.8448 575.712C91.1872 504.4928 59.6992 419.8592 53.76 330.976l-1.024-14.848L256.512 316.128l0.4096 13.4144C258.8672 390.1632 269.8752 450.784 289.792 509.9712l4.352 13.0048L281.1904 527.4816c-39.7312 13.824-79.7184 31.3856-118.7328 52.1216L151.9616 585.184 144.8448 575.712zM528.7936 520.16l14.4896 0.6656c43.52 1.8432 87.4496 8.2944 130.6624 19.0976l16.0256 3.9936L683.2128 559.072c-44.8512 100.0448-106.1888 168.7552-130.56 193.5872l-23.808 24.4224L528.8448 520.16zM472.0128 752.608c-24.2176-24.6784-85.1968-92.928-130.048-192.3072L335.2064 545.248 351.232 541.152c43.1616-10.9568 86.8864-17.664 129.9456-19.968l14.6432-0.768L495.8208 777.0304 472.0128 752.608zM622.6944 720.0448c36.864-48.64 67.584-100.9664 91.2384-155.5456l5.12-11.776 12.1344 4.1984c35.072 12.0832 69.7344 27.136 103.0144 44.8512l16.4864 8.7552-13.2096 13.312c-55.3984 55.7568-124.6208 96.6144-199.936 118.016L597.504 753.2224 622.6944 720.0448zM387.328 742.0096C311.808 720.7616 242.5856 680.0064 187.0336 624.4032L173.5168 610.8352l17.0496-8.704C224.256 585.0304 259.1232 570.2848 294.0416 558.304L306.176 554.1056l5.12 11.7248c23.6032 54.2208 54.2208 106.1376 90.8288 154.4704l25.088 33.024L387.328 742.0096z"  horiz-adv-x="1024" />

    
    <glyph glyph-name="zixun1" unicode="&#58910;" d="M470.843446 345.514307c36.091206 14.823071 76.693573 14.823071 112.784779-0.644315 14.178757-5.79979 30.291416 0.644315 36.091206 14.823071 5.801708 14.178757-0.644315 30.290457-14.823071 36.092165-50.269963 21.268135-105.049169 21.268135-155.32009 0.644315-50.269004-20.624779-89.582742-59.292285-110.205603-109.563206-4.511161-10.956225-1.933903-22.555805 5.800749-30.291416 2.578217-2.577258 5.155476-4.511161 9.023281-5.79979 14.178757-5.800749 30.290457 0.644315 36.091206 14.823071C405.753288 302.333723 434.108884 330.045963 470.843446 345.514307zM460.531536 223.062891c7.090337 16.756974 20.62382 30.290457 37.379835 37.378876 16.756974 7.090337 36.092165 7.090337 52.847221 0 14.177798-6.445064 30.290457 0 36.734562 14.178757 5.800749 14.178757-0.644315 30.291416-14.823071 36.091206-30.936689 12.889169-64.448719 12.889169-95.382532 0.644315-30.934772-12.889169-54.781124-36.090247-67.670292-67.026936-4.511161-10.955266-1.933903-22.554846 5.800749-30.290457 2.577258-2.577258 5.155476-4.511161 9.021363-5.79979C438.620045 202.439071 454.731745 208.884135 460.531536 223.062891zM702.208959 679.99988C626.808809 680.644195 556.5603 642.620045 510.801498 580.106187 464.399341 642.620045 394.796105 680.644195 318.745888 680.644195 182.760989 680.644195 71.910112 559.482367 71.910112 410.607341c0-85.699596 37.643506-147.11179 68.732644-196.614712-11.077993-27.013273-5.793079-59.669094 16.338936-81.802067l39.313738-39.307985c29.002787-29.000869 76.693573-29.000869 105.695401 0l26.424569 26.419775c29.000869 29.001828 29.000869 76.693573 0 105.695401l-39.313738 39.312779c-29.002787 29.001828-76.692614 29.001828-105.694442 0l-1.289588-1.289588-3.378816-3.669333c-28.179176 45.511431-52.045663 91.120659-52.045663 151.25573 0 116.005393 85.715895 209.456899 192.054652 209.456899 77.982202 0 145.653453-51.558592 175.299596-125.029633l0 0.643356c1.933903-7.732734 8.378007-13.532524 16.1117-13.532524s14.178757 5.79979 16.112659 13.532524c29.646142 73.472 96.67212 124.386277 175.293843 124.386277 105.695401 0 192.057528-94.094861 192.057528-209.456899 0-67.026936-29.001828-115.362996-61.870502-166.921588l0.168749-0.126562c-2.683685-4.255161-17.622772-26.761109-61.393978-73.988794-57.983521-53.342921-72.825768-58.002697-72.825768-58.002697s-22.382262 60.909783-68.309813 83.137678c-54.586487 27.871401-121.809019 20.624779-166.921588-24.489708-55.426397-54.781124-56.069753-145.003386-1.288629-200.429783 55.424479-56.069753 146.296809-56.713109 201.717453-0.644315 18.689918 19.334232 31.581004 41.890996 37.379835 66.380704 0.644315 0.644315 1.288629 1.289588 1.288629 1.289588s98.396045 62.795745 172.723296 168.848779c1.194667 1.349034 2.206202 2.683685 3.04803 3.998202l0.174502-0.131356c31.581004 50.270921 71.537139 112.139506 71.537139 201.078891C949.044734 559.482367 838.193858 679.99988 702.208959 679.99988zM195.651116 198.572225l26.42361 26.425528c7.733693 7.731775 19.978547 7.731775 27.71224 0l39.313738-39.314697c7.733693-7.732734 7.733693-19.979506 0-27.711281l-26.424569-26.425528c-7.732734-7.732734-19.978547-7.732734-27.71224 0l-39.313738 39.313738C187.916464 178.593678 187.916464 190.837573 195.651116 198.572225zM623.586277 7.810037c-34.157303-33.512989-88.938427-33.512989-123.09573 0-33.512989 33.512989-34.157303 88.938427 0 123.091895 33.513948 33.512989 88.938427 34.157303 123.09573 0C657.094472 97.393738 657.739745 41.967341 623.586277 7.810037z"  horiz-adv-x="1024" />

    
    <glyph glyph-name="gouwucheshoppingcart" unicode="&#58937;" d="M874.576 538.898c-14.141 14.863-33.442 23.017-54.601 23.017h-478.3c-15.173 0-27.662-11.56-27.662-25.701s12.386-25.701 27.662-25.701h478.197c5.161 0 9.702-1.858 13.315-5.574 5.47-5.78 8.051-15.276 7.019-23.946l-43.557-231.615c-1.548-11.457-13.108-21.469-26.836-21.572l-374.672-25.701c-15.069-1.135-26.526-13.315-25.494-27.559 1.032-13.521 13.212-23.843 27.559-23.843 0.619 0 1.445 0 2.168 0.206l372.711 25.494c39.841 0 74.728 29.21 79.476 65.232l43.557 231.615c2.993 24.875-4.335 48.614-20.54 65.645zM811.202 99.303h-448.677c-11.663 0-23.327 10.012-24.875 21.985l-47.066 308.098-26.526 142.85c-4.851 37.364-40.254 66.677-80.508 66.677h-35.196c-15.173 0-27.662-11.56-27.662-25.701s12.386-25.701 27.662-25.701h35.196c11.973 0 24.256-10.115 25.907-22.707l26.63-143.469 46.86-306.859c4.851-37.364 39.841-66.677 79.682-66.677h448.574c15.379 0 27.662 11.56 27.662 25.701 0 14.347-12.283 25.804-27.662 25.804zM320-29.2c0 0 0 0 0 0 0-27.476 22.274-49.75 49.75-49.75 27.476 0 49.75 22.274 49.75 49.75 0 0 0 0 0 0 0 0 0 0 0 0 0 27.476-22.274 49.75-49.75 49.75-27.476 0-49.75-22.274-49.75-49.75s0 0 0 0zM706.748-29.2c0 0 0 0 0 0 0-27.476 22.274-49.75 49.75-49.75 27.476 0 49.75 22.274 49.75 49.75 0 0 0 0 0 0 0 0 0 0 0 0 0 27.476-22.274 49.75-49.75 49.75-27.476 0-49.75-22.274-49.75-49.75s0 0 0 0z"  horiz-adv-x="1024" />

    
    <glyph glyph-name="sousuo" unicode="&#58889;" d="M441.202561 740.995717c38.164205 0 75.16798-7.467065 109.983927-22.192442 33.646308-14.231119 63.87068-34.611286 89.834005-60.57461 25.963325-25.963325 46.343491-56.187697 60.57461-89.834005 14.7264-34.815947 22.192442-71.819722 22.192442-109.983927 0-38.164205-7.467065-75.169003-22.192442-109.98495-14.231119-33.645284-34.611286-63.869656-60.57461-89.834005-25.963325-25.963325-56.187697-46.343491-89.834005-60.57461-34.815947-14.725376-71.819722-22.192442-109.983927-22.192442s-75.16798 7.467065-109.983927 22.192442c-33.645284 14.231119-63.869656 34.611286-89.834005 60.57461-25.963325 25.963325-46.343491 56.187697-60.57461 89.834005-14.7264 34.815947-22.192442 71.819722-22.192442 109.98495 0 38.164205 7.466042 75.16798 22.192442 109.983927 14.231119 33.646308 34.611286 63.87068 60.57461 89.834005s56.187697 46.344514 89.834005 60.57461C366.034581 733.528652 403.038356 740.995717 441.202561 740.995717M441.202561 776.3182c-175.574784 0-317.90849-142.332682-317.90849-317.90849 0-175.576831 142.332682-317.90849 317.90849-317.90849S759.111051 282.832879 759.111051 458.410734C759.111051 633.985518 616.777345 776.3182 441.202561 776.3182L441.202561 776.3182zM718.874651 189.568752c1.669012 0 4.106528-0.448208 6.244214-2.585895l137.374764-137.374764c3.443425-3.443425 3.443425-9.045003 0-12.488429-2.137687-2.137687-4.576225-2.585895-6.245238-2.585895s-4.107551 0.448208-6.244214 2.585895L712.629413 174.495452c-2.137687 2.137687-2.585895 4.574179-2.585895 6.243191 0 1.667989 0.448208 4.105504 2.587941 6.244214C714.768123 189.119521 717.206662 189.568752 718.874651 189.568752M718.874651 224.891236c-11.299347 0-22.599717-4.311189-31.221072-12.932544-17.244756-17.242709-17.244756-45.199435 0-62.442144l137.373741-137.374764c8.621355-8.621355 19.921725-12.932544 31.222095-12.932544 11.30037 0 22.600741 4.311189 31.222095 12.932544 17.242709 17.242709 17.242709 45.199435 0 62.442144L750.095723 211.958692C741.474368 220.58107 730.175021 224.891236 718.874651 224.891236L718.874651 224.891236z"  horiz-adv-x="1024" />

    
    <glyph glyph-name="chaoshi" unicode="&#58986;" d="M363.495246 253.90913l403.309532-1.065262 0.660032-0.002047 0.659009 0.040932c19.184945 1.187035 35.18536 13.746072 39.812751 31.251771l0.064468 0.242524 78.689177 330.269006c3.006474 11.759835 0.416486 24.087605-7.122211 33.868365-8.247848 10.69969-21.591761 17.087167-35.69599 17.087167L289.362852 665.601586l-21.975501 89.651856-116.257817 0c-11.30344 0-20.466124-9.162684-20.466124-20.466124s9.162684-20.466124 20.466124-20.466124l84.146469 0 103.805204-423.487084c-32.178887-10.578939-55.486732-40.897456-55.486732-76.575026 0-23.856337 10.43056-45.313022 26.960025-60.081377-16.535605-14.770402-26.970258-36.235272-26.970258-60.098773 0-44.443212 36.156478-80.599689 80.599689-80.599689 44.436048 0 80.58741 36.156478 80.58741 80.599689 0 14.414291-3.822049 27.945469-10.476609 39.665395l283.008632 0c-6.656607-11.719926-10.478655-25.251104-10.478655-39.665395 0-44.443212 36.156478-80.599689 80.598666-80.599689 44.429909 0 80.576153 36.156478 80.576153 80.599689 0 44.442188-36.146245 80.597643-80.576153 80.597643l-423.239444 0c-0.435928 0-0.865717-0.025583-1.299599-0.032746-21.266349 0.689708-38.356586 18.189268-38.356586 39.616276C324.528769 235.900987 341.946464 253.538693 363.495246 253.90913zM843.870991 624.670361c1.500167 0 2.450818-0.464581 2.931772-0.821715l-78.401628-329.065598c-0.246617-0.254803-1.02433-0.827855-2.37714-1.004887l-385.769041 1.019213-80.858586 329.872986L843.870991 624.670361zM364.184955 54.412516c-21.87317 0-39.667441 17.795295-39.667441 39.667441 0 21.435195 17.095353 38.942941 38.367843 39.631626 0.433882-0.007163 0.86367-0.032746 1.299599-0.032746 0.293689 0 0.578168 0.031722 0.86981 0.044002 21.464871-0.465604 38.785352-18.063401 38.785352-39.642882C403.840116 72.206788 386.049938 54.412516 364.184955 54.412516zM827.06728 94.079958c0-21.872147-17.784038-39.667441-39.643905-39.667441-21.872147 0-39.666418 17.795295-39.666418 39.667441 0 21.871123 17.794271 39.665395 39.666418 39.665395C809.284265 133.744329 827.06728 115.951081 827.06728 94.079958z"  horiz-adv-x="1024" />

    
    <glyph glyph-name="money" unicode="&#59042;" d="M832 384l0 64-278.4-3.2 307.2 352-57.6 32L512 508.8l-300.8 320L156.8 800l316.8-352L192 448l0-64 288 0 0-128L192 256l0-64 288 0 0-224 64 0L544 192l288 0 0 64L544 256 544 384 832 384z"  horiz-adv-x="1024" />

    
    <glyph glyph-name="jiadian" unicode="&#58932;" d="M747.52 793.6 281.6 793.6C249.173333 793.6 221.866667 766.293333 221.866667 732.16l0-698.026667c0-32.426667 27.306667-59.733333 59.733333-59.733333l464.213333 0c32.426667 0 54.613333 27.306667 54.613333 59.733333L800.426667 732.16C802.133333 766.293333 779.946667 793.6 747.52 793.6zM281.6 759.466667l464.213333 0C762.88 759.466667 768 749.226667 768 732.16l0-283.306667c0 1.706667 3.413333 1.706667 0 1.706667L256 450.56 256 732.16C256 749.226667 266.24 759.466667 281.6 759.466667zM747.52 8.533333 281.6 8.533333c-15.36 0-25.6 10.24-25.6 25.6L256 418.133333l512 0c3.413333 0 0 0 0 1.706667l0-385.706667C768 18.773333 762.88 8.533333 747.52 8.533333zM699.733333 554.666667c10.24 0 17.066667 6.826667 17.066667 17.066667l0 68.266667c0 10.24-6.826667 17.066667-17.066667 17.066667s-17.066667-6.826667-17.066667-17.066667l0-68.266667C682.666667 561.493333 689.493333 554.666667 699.733333 554.666667zM699.733333 264.533333c-10.24 0-17.066667-6.826667-17.066667-17.066667l0-68.266667c0-10.24 6.826667-17.066667 17.066667-17.066667s17.066667 6.826667 17.066667 17.066667l0 68.266667C716.8 257.706667 709.973333 264.533333 699.733333 264.533333z"  horiz-adv-x="1024" />

    
    <glyph glyph-name="huiyuan" unicode="&#58911;" d="M886.639-5.593c-10.545 91.274-54.187 175.479-122.885 237.104-37.857 33.96-82.014 59.752-129.74 76.063 23.159 12.223 44.527 27.939 63.238 46.651 49.483 49.482 76.735 115.272 76.735 185.252 0 69.977-27.251 135.768-76.734 185.252C647.771 774.213 581.98 801.464 512 801.464c-69.978 0-135.768-27.251-185.252-76.734-49.483-49.482-76.735-115.273-76.735-185.253 0-69.98 27.252-135.77 76.735-185.253 18.712-18.712 40.08-34.428 63.235-46.65-47.725-16.311-91.881-42.104-129.738-76.064-68.699-61.627-112.339-145.832-122.884-237.104-1.584-13.716 8.25-26.119 21.966-27.704 13.708-1.577 26.119 8.25 27.704 21.966 9.142 79.132 47 152.156 106.602 205.623 44.605 40.013 99.278 66.973 158.109 77.965 16.716 3.123 33.885 4.927 51.257 5.409 2.987-0.1 5.986-0.167 8.96-0.167 3.206 0 6.408 0.062 9.605 0.177 0.428-0.011 0.855-0.017 1.283-0.03 16.3-0.496 32.925-2.31 49.411-5.39 58.83-10.992 113.504-37.952 158.108-77.963 59.601-53.465 97.459-126.49 106.602-205.624 1.473-12.741 12.28-22.134 24.804-22.133 0.958 0 1.926 0.055 2.9 0.167C878.389-31.712 888.223-19.309 886.639-5.593zM300.013 539.477c0 56.624 22.05 109.858 62.09 149.897 40.04 40.039 93.273 62.09 149.897 62.09s109.858-22.05 149.897-62.09c40.039-40.04 62.09-93.273 62.09-149.897s-22.05-109.858-62.09-149.897c-26.141-26.141-57.909-44.609-92.571-54.284-15.719-4.38-31.93-6.907-48.223-7.597-6.024 0.133-12.038 0.132-18.034-0.012-0.213 0.009-0.426 0.012-0.639 0.021-16.135 0.712-32.196 3.246-47.755 7.588-34.661 9.674-66.43 28.142-92.571 54.284C322.064 429.619 300.013 482.854 300.013 539.477z"  horiz-adv-x="1024" />

    
    <glyph glyph-name="yifu" unicode="&#58899;" d="M418.625868 219.168907M945.236634 560.466084 693.504332 713.504596c-2.606361 1.568728-5.604648 4.334725-8.635681 4.334725l-59.860343 0c-7.203052 0-13.595646-6.544043-15.897062-13.357216-12.742209-37.742603-48.880267-65.071018-87.868233-65.071018-39.006386 0-75.126025 27.816532-87.877443 65.559135-2.294252 6.814196-8.685823 12.870122-15.887852 12.870122l-76.642564 0c-3.040243 0-6.030343-2.765997-8.636704-4.334725L80.465125 561.424922c-7.005554-4.203742-9.963932-13.331633-7.005554-20.961404l58.736752-151.317311c3.204995-8.235568 12.242835-12.726859 20.691251-10.055007l137.108704 43.291992-7.899924-379.326305c-0.089028-4.50664 1.639337-6.949272 4.786003-10.169617 3.163039-3.219321 7.482415-3.113921 11.997242-3.113921l419.552471 0 0.155543 0c9.284457 0 16.781198 5.571902 16.781198 14.839986 0 0.934279-0.064468 0.86981-0.203638 1.763157l-7.858992 378.817722 136.853901-45.88812c8.194636-2.688225 17.134239 1.089821 20.650319 8.980535l67.128887 151.038972C955.380668 547.076122 952.496991 556.1068 945.236634 560.466084M860.325755 415.720446l-144.975882 48.367591c-5.195326 1.711991-10.865465 0.840134-15.265682-2.408863-4.39203-3.236718-6.941086-6.469342-6.826476-11.914354l8.03807-386.42805L316.012815 63.33677l8.03807 383.633401c0.107447 5.412266-2.39249 9.583263-6.718005 12.81077-4.343935 3.25002-9.964956 3.720741-15.127536 2.089591l-144.434553-45.904493-47.913243 125.050064L345.48915 684.274878l60.564377 0c20.313651-50.346665 66.046229-75.519997 115.188462-75.519997 49.124837 0 94.866624 25.173332 115.172089 75.519997l43.799552 0 235.023758-143.009088L860.325755 415.720446z"  horiz-adv-x="1024" />

    
    <glyph glyph-name="sousuo2" unicode="&#58962;" d="M966.4-28.8l-230.4 227.2c60.8 67.2 96 156.8 96 256 0 217.6-176 390.4-390.4 390.4-217.6 0-390.4-176-390.4-390.4 0-217.6 176-390.4 390.4-390.4 99.2 0 188.8 35.2 256 96l230.4-227.2c9.6-9.6 28.8-9.6 38.4 0C979.2-54.4 979.2-38.4 966.4-28.8zM102.4 454.4c0 185.6 150.4 339.2 339.2 339.2s339.2-150.4 339.2-339.2c0-89.6-35.2-172.8-92.8-233.6-3.2 0-3.2-3.2-6.4-3.2-3.2-3.2-3.2-3.2-3.2-6.4-60.8-57.6-144-92.8-233.6-92.8C256 115.2 102.4 268.8 102.4 454.4z"  horiz-adv-x="1024" />

    
    <glyph glyph-name="zhaoxiangji" unicode="&#58979;" d="M512 608c-124.8 0-224-99.2-224-224s99.2-224 224-224 224 99.2 224 224S636.8 608 512 608zM512 208c-96 0-176 80-176 176s80 176 176 176 176-80 176-176S608 208 512 208zM768 524.8a1.6 1.6 0 1 0 102.4 0 1.6 1.6 0 1 0-102.4 0ZM864 672l-96 0-22.4 67.2c-6.4 16-25.6 28.8-41.6 28.8l-384 0c-19.2 0-35.2-12.8-41.6-28.8l-22.4-67.2-96 0c-54.4 0-96-41.6-96-96l0-448c0-54.4 44.8-96 96-96l704 0c54.4 0 96 41.6 96 96l0 448C960 630.4 918.4 672 864 672zM912 128c0-25.6-22.4-48-48-48l-704 0c-25.6 0-48 22.4-48 48l0 448c0 25.6 22.4 48 48 48l96 0 35.2 0 9.6 32 22.4 64 377.6 0 22.4-64 9.6-32 35.2 0 96 0c25.6 0 48-22.4 48-48L912 128z"  horiz-adv-x="1024" />

    
    <glyph glyph-name="fenlei" unicode="&#59012;" d="M385.297793 890.266468 96.296777 890.177919C47.927016 889.558078 8.832739 850.264565 8.832739 801.739845l0-287.894157c0.088549-48.480446 39.116415-87.707547 87.464038-88.327388l289.001016-0.088549c48.790367 0.066412 88.327388 39.736256 88.415937 88.54876l0 287.783471C473.71373 850.596623 434.132434 890.222193 385.297793 890.266468zM385.16497 469.681994l-287.783471 0c-24.439458 0-44.27438 19.834922-44.27438 44.27438l0 287.783471c0 24.439458 19.834922 44.27438 44.27438 44.27438l287.783471 0c24.439458 0 44.27438-19.834922 44.27438-44.27438l0-287.783471C429.43935 489.494779 409.604427 469.681994 385.16497 469.681994zM938.727544 890.266468 649.726528 890.177919c-48.391897-0.597704-87.464038-39.913354-87.464038-88.438074l0-287.894157c0.088549-48.480446 39.116415-87.707547 87.464038-88.327388l289.001016-0.088549c48.790367 0.066412 88.327388 39.736256 88.415937 88.54876l0 287.783471C1027.143481 850.596623 987.562185 890.222193 938.727544 890.266468zM938.594721 469.681994l-287.783471 0c-24.439458 0-44.27438 19.834922-44.27438 44.27438l0 287.783471c0 24.439458 19.834922 44.27438 44.27438 44.27438l287.783471 0c24.439458 0 44.27438-19.834922 44.27438-44.27438l0-287.783471C982.869101 489.494779 963.034179 469.681994 938.594721 469.681994zM385.297793 336.836717 96.296777 336.748168c-48.391897-0.597704-87.464038-39.913354-87.464038-88.438074l0-287.894157c0.088549-48.480446 39.116415-87.707547 87.464038-88.327388l289.001016-0.088549c48.790367 0.066412 88.327388 39.736256 88.415937 88.54876l0 287.783471C473.71373 297.166872 434.132434 336.792442 385.297793 336.836717zM385.16497-83.747757l-287.783471 0c-24.439458 0-44.27438 19.834922-44.27438 44.27438l0 287.783471c0 24.439458 19.834922 44.27438 44.27438 44.27438l287.783471 0c24.439458 0 44.27438-19.834922 44.27438-44.27438l0-287.783471C429.43935-63.934972 409.604427-83.747757 385.16497-83.747757zM938.727544 336.836717 649.726528 336.748168c-48.391897-0.597704-87.464038-39.913354-87.464038-88.438074l0-287.894157c0.088549-48.480446 39.116415-87.707547 87.464038-88.327388l289.001016-0.088549c48.790367 0.066412 88.327388 39.736256 88.415937 88.54876l0 287.783471C1027.143481 297.166872 987.562185 336.792442 938.727544 336.836717zM938.594721-83.747757l-287.783471 0c-24.439458 0-44.27438 19.834922-44.27438 44.27438l0 287.783471c0 24.439458 19.834922 44.27438 44.27438 44.27438l287.783471 0c24.439458 0 44.27438-19.834922 44.27438-44.27438l0-287.783471C982.869101-63.934972 963.034179-83.747757 938.594721-83.747757z"  horiz-adv-x="1028" />

    
    <glyph glyph-name="xin1" unicode="&#58914;" d="M862.614379 719.475588c-31.522947 24.249287-68.25964 40.893362-106.289792 48.106648-40.148395 7.625678-80.687694 4.352121-117.26782-9.312086-53.086056-19.838837-96.939843-60.84988-127.540791-119.071909-30.600949 58.222029-74.453712 99.233072-127.540791 119.071909-36.619012 13.663184-77.120448 16.917298-117.26782 9.312086-38.011732-7.214309-74.767867-23.857361-106.310258-48.106648-60.809971-46.734394-95.684246-115.582435-95.684246-188.879811 0-171.451884 121.777531-255.159354 239.613286-336.043522 68.495-52.380998 113.465215-102.251825 153.142889-146.281621 12.467963-13.840216 24.563442-27.248597 36.894282-40.226167 5.782703-6.116301 12.663414-9.4093 19.348674-9.4093 1.235131 0 2.470261 0.11768 3.685949 0.353041 6.998391 1.333368 12.605086 6.390547 15.780405 14.193257 30.718629 75.120908 105.839537 126.678144 185.351452 181.254134 117.895107 80.923054 239.790318 164.611082 239.790318 336.161203C958.319092 603.893152 923.42435 672.721751 862.614379 719.475588zM641.917932 471.020936c0 5.155417 1.99954 10.017144 5.685489 13.68365 3.685949 3.665483 8.546653 5.685489 13.722536 5.685489 5.135974 0 9.997702-2.018983 13.68365-5.685489 3.685949-3.64604 5.685489-8.507768 5.685489-13.68365 0-5.195326-1.99954-10.057053-5.685489-13.703093-7.40976-7.351432-20.074198-7.272637-27.405163-0.019443C643.917472 460.983325 641.917932 465.865519 641.917932 471.020936zM529.374716 307.507862c-7.370875-7.370875-20.074198-7.370875-27.406187 0-3.665483 3.685949-5.685489 8.546653-5.685489 13.722536 0 5.174859 2.018983 10.017144 5.685489 13.68365 3.64604 3.665483 8.507768 5.665023 13.68365 5.665023 5.195326 0 10.057053-1.99954 13.703093-5.665023 3.665483-3.665483 5.685489-8.507768 5.685489-13.68365C535.039739 316.054515 533.020756 311.193811 529.374716 307.507862zM381.093555 471.020936c0-5.174859-2.018983-10.036587-5.685489-13.703093-7.351432-7.331989-20.054755-7.312546-27.38572 0-3.665483 3.665483-5.685489 8.527211-5.685489 13.703093 0 5.155417 2.018983 10.017144 5.685489 13.68365 3.665483 3.665483 8.527211 5.685489 13.68365 5.685489 5.174859 0 10.036587-2.018983 13.703093-5.685489C379.074571 481.03808 381.093555 476.176352 381.093555 471.020936zM413.184437 512.815831c-1.451048 1.76418-2.979868 3.470031-4.587482 5.097088-25.053606 25.013697-68.730361 25.013697-93.782943 0-12.506848-12.526291-19.407002-29.170366-19.407002-46.911426 0-17.702174 6.900154-34.345226 19.407002-46.87254 25.053606-25.053606 68.749804-25.053606 93.7635 0 1.627057 1.607614 3.155876 3.313465 4.606925 5.077645l58.437947-58.437947c-0.980327-0.862647-1.920746-1.744737-2.823302-2.665713-12.545734-12.506848-19.446911-29.150924-19.446911-46.87254 0-17.721617 6.900154-34.384112 19.427468-46.891983 25.053606-25.092491 68.690452-25.092491 93.782943 0 12.506848 12.506848 19.407002 29.170366 19.407002 46.891983 0 17.702174-6.900154 34.345226-19.446911 46.87254-2.312672 2.312672-4.782933 4.450359-7.370875 6.390547l54.69367 54.713113c1.451048-1.783623 2.979868-3.470031 4.587482-5.077645 25.092491-25.053606 68.690452-25.053606 93.782943 0 12.506848 12.526291 19.408025 29.170366 19.408025 46.891983 0 17.721617-6.900154 34.364669-19.408025 46.891983-25.013697 25.013697-68.808132 25.013697-93.744058 0-1.6465-1.607614-3.175319-3.312442-4.626367-5.097088L538.078958 584.584388c25.464975 65.789379 65.926502 110.62247 117.327172 129.814578 28.54308 10.68434 60.45693 13.134135 92.254124 7.154957 30.777981-5.842055 60.653405-19.387559 86.373183-39.168068 49.126884-37.795814 77.3159-93.116771 77.3159-151.790078 0-146.889465-111.426789-223.402069-219.324194-297.502741-71.631434-49.204655-139.499148-95.782483-181.175339-161.729451-40.167838 53.125965-99.17372 106.173135-179.960675 161.807223-107.779725 74.0229-219.225957 150.535505-219.225957 297.42497 0 58.653865 28.190039 113.994264 77.3159 151.790078 25.758664 19.760043 55.615669 33.30657 86.373183 39.168068 11.33107 2.136663 22.662139 3.195785 33.855062 3.195785 20.230764 0 40.010249-3.470031 58.418504-10.350742 51.360761-19.172665 91.842755-64.025199 117.307729-129.814578L413.184437 512.815831zM437.728436 471.020936l73.78754 73.768097 73.748654-73.768097-73.748654-73.78754L437.728436 471.020936z"  horiz-adv-x="1024" />

    
    <glyph glyph-name="wode" unicode="&#59047;" d="M662.268058 144.151018c-9.156483 5.290412-20.34774 5.290412-29.504223 0l-121.577745-70.199702-121.577745 70.199702c-9.156483 5.290412-20.34774 5.290412-29.504223 0-9.156483-5.290412-14.752111-15.057327-14.752111-25.536413l0-161.255837c0-10.580825 5.595628-20.246001 14.752111-25.536413 4.578241-2.645206 9.665176-3.967809 14.752111-3.967809s10.17387 1.322603 14.752111 3.967809l121.577745 70.199702 121.577745-70.199702c4.578241-2.645206 9.665176-3.967809 14.752111-3.967809s10.17387 1.322603 14.752111 3.967809c9.156483 5.290412 14.752111 15.057327 14.752111 25.536413L677.020169 118.614605C677.020169 129.093691 671.42454 138.860606 662.268058 144.151018zM404.360457 8.533333l0 59.008445 51.072827-29.504223L404.360457 8.533333zM618.011724 8.533333l-51.072827 29.504223 51.072827 29.504223L618.011724 8.533333zM882.837556 180.980427c-28.079881 37.134625-61.551913 69.792747-99.398708 96.855241-22.789468 16.278192-46.799801 30.419871-72.030999 42.22156 72.132737 59.313661 115.168207 148.5385 115.168207 243.765922 0 84.341381-32.8616 163.494088-92.378738 223.112966C674.476701 846.554993 595.323994 879.416592 510.982613 879.416592c-84.341381 0-163.494088-32.8616-223.112966-92.378738s-92.378738-138.873323-92.378738-223.112966c0-56.058023 14.85385-111.098659 43.035469-159.221063 18.618182-31.844213 42.730253-60.127571 71.013612-83.527471-66.43537-33.980725-123.612519-83.62921-167.054943-145.486339-54.430204-77.524888-83.222255-168.682762-83.222255-263.808445 0-16.176453 13.124292-29.300745 29.300745-29.300745s29.300745 13.124292 29.300745 29.300745c0 82.917039 25.129459 162.476701 72.539692 230.132936 46.392846 66.130154 110.691704 116.185594 185.876602 144.774168 9.970392 3.764332 16.685147 12.51386 18.414704 22.280775 3.459116 12.51386-1.729558 26.146846-13.429508 33.065077-38.050273 22.280775-69.894486 54.226726-92.175261 92.175261-22.891207 39.169399-34.998112 83.934426-34.998112 129.615102 0 68.673621 26.757278 133.175956 75.286637 181.705315 48.529359 48.529359 113.031694 75.286637 181.705315 75.286637s133.175956-26.757278 181.705315-75.286637c48.529359-48.529359 75.286637-113.031694 75.286637-181.705315 0-92.480477-49.851962-177.940984-130.327273-223.621659-7.528664-3.255638-13.632986-9.563438-16.37993-17.906011-4.985196-15.362543 3.459116-31.945951 18.821659-36.931148 38.965922-12.717337 75.693592-31.23378 109.165623-55.244113 33.065077-23.705117 62.264083-52.191952 86.78311-84.646597 50.869349-67.24928 78.745753-147.317635 80.780527-231.760755 0.406955-15.972976 13.429508-28.588574 29.300745-28.588574 0.203477 0 0.508693 0 0.712171 0 16.176453 0.406955 28.995529 13.836463 28.588574 30.012916C973.18152 11.992449 941.13383 103.862494 882.837556 180.980427z"  horiz-adv-x="1024" />

    
    <glyph glyph-name="wodexiaoxi" unicode="&#59851;" d="M959.700043 239.878578 959.700043 494.37176c0 68.772316-52.364625 125.294634-119.371738 131.935891l0-252.116041c0-105.894795-86.152149-192.032618-192.032618-192.032618L352.68504 182.158992c-20.191878-18.531052-40.204677-33.54807-59.588143-45.917796 22.660092-18.082844 51.347458-28.971845 82.607416-28.971845l319.631738 0c127.717823-130.276089 263.676331-104.055914 236.604766-83.638909-40.488133 30.54262-61.547775 60.636009-70.91205 88.186482C917.775188 126.803243 959.700043 178.374806 959.700043 239.878578zM648.294664 761.278669 196.892811 761.278669c-73.214489 0-132.593877-59.379389-132.593877-132.593877l0-254.493182c0-61.502749 41.909505-113.074312 98.686626-128.061654-9.392928-27.581172-30.422893-57.644885-70.926376-88.186482-10.604522-8.002254 3.874237-16.916275 33.070186-16.916275 45.275159 0 125.922944 21.373797 203.549929 100.556207l319.616388 0c73.244164 0 132.609227 59.34869 132.609227 132.608204L780.904914 628.684792C780.903891 701.900304 721.538829 761.278669 648.294664 761.278669zM276.149922 477.424786l-73.39459 0 0 73.39459 73.39459 0L276.149922 477.424786zM459.313545 477.424786l-73.407893 0 0 73.39459 73.407893 0L459.313545 477.424786zM642.461819 477.424786l-73.39459 0 0 73.39459 73.39459 0L642.461819 477.424786z"  horiz-adv-x="1024" />

    
    <glyph glyph-name="shouye" unicode="&#58917;" d="M867.388103 437.860698c-16.591887 5.012154-33.967626-4.321422-38.959314-20.821211-9.688663-31.974225-22.997784-62.149479-39.538505-89.701998-57.707306-96.117105-158.449755-151.241586-276.41547-151.241586-117.996414 0-218.759329 55.144948-276.456403 151.282518-16.521279 27.552519-29.80891 57.707306-39.488363 89.620134-5.012154 16.490579-22.438035 25.824155-38.959314 20.821211-16.500812-5.012154-25.824155-22.448268-20.821211-38.959314 11.17348-36.814464 26.545586-71.676459 45.710065-103.619986C245.514693 190.164317 355.673605 124.342192 481.241462 114.927775l0-147.536194c0-17.252943 13.979386-31.232328 31.232328-31.232328s31.232328 13.979386 31.232328 31.232328L543.706119 114.927775c125.523855 9.41544 235.669464 75.217099 298.741965 180.26255 19.174712 31.934317 34.577516 66.836221 45.76123 103.712083C893.211235 415.41243 883.888915 432.848545 867.388103 437.860698zM881.625362 674.595424c-9.445116 22.174022-31.242562 36.804231-55.836703 37.282115l-9.587356 0.091074c-55.643298 0-106.48729-16.714683-151.333684-35.329646C625.685225 743.892697 589.156264 788.758534 551.081087 816.595532c-2.134617 1.839905-4.443196 3.558036-6.944156 5.164626-17.304108 11.041474-38.928614 12.830213-57.767682 4.818749-5.438872-2.287089-10.502192-5.317099-15.077394-9.03784-37.892005-27.369348-75.661214-73.190953-115.027803-139.631154-44.348044 17.954931-94.358041 34.089399-147.96803 34.089399l-9.445116-0.101307c-24.288173-0.488117-46.076408-15.108093-55.521524-37.261649-21.60404-50.701752-30.449499-111.1331-25.600051-174.757163 1.25048-16.389272 14.935154-28.853142 31.110555-28.853142 0.793062 0 1.596358 0.030699 2.409886 0.091074 17.192567 1.311879 30.073946 16.317641 28.762067 33.520441-4.066619 53.375651 3.009544 103.427604 20.48659 144.816247l8.112772 0.080841c52.034097 0 101.95302-19.652596 148.618852-39.783075 14.700817-6.324032 31.842219-0.539282 39.651069 13.470803 40.168862 72.04178 76.688613 119.195729 111.662149 144.165424 0.731664 0.518816 1.026376 1.341554 1.707898 1.932002 0.945535-0.873903 1.952468-1.697665 2.99931-2.449795 34.740222-25.02086 71.00517-72.469522 110.848621-145.040351 7.807826-14.213723 25.193799-20.079314 40.026622-13.532201 44.998867 19.937075 97.56099 41.206494 151.770636 41.206494l8.559956-0.080841c16.490579-39.060621 23.77038-86.204337 21.055548-136.418996-0.935302-17.222243 12.271488-31.94455 29.493731-32.869618 17.090237-1.209548 31.94455 12.261255 32.869618 29.493731C911.129326 569.612395 902.050554 626.668879 881.625362 674.595424zM390.593929 563.969884c-17.252943 0-31.232328-13.979386-31.232328-31.232328l0-30.469965c0-17.252943 13.979386-31.232328 31.232328-31.232328 17.252943 0 31.232328 13.979386 31.232328 31.232328l0 30.469965C421.827281 549.990498 407.846872 563.969884 390.593929 563.969884zM634.363885 563.969884c-17.252943 0-31.232328-13.979386-31.232328-31.232328l0-30.469965c0-17.252943 13.979386-31.232328 31.232328-31.232328s31.232328 13.979386 31.232328 31.232328l0 30.469965C665.597237 549.990498 651.617851 563.969884 634.363885 563.969884zM589.500095 422.529525c-14.304797 9.404184-33.591049 5.38873-43.157939-8.763594-0.132006-0.193405-13.613042-19.753903-34.170241-19.753903-19.98824 0-32.432667 18.117636-33.265638 19.378349-9.181103 14.416338-28.284183 18.808368-42.832528 9.750061-14.650675-9.099239-19.154245-28.354791-10.044774-43.005466 11.214413-18.046005 41.968857-48.587602 86.143962-48.587602 43.961234 0 75.102489 30.317493 86.570681 48.221258C607.962585 394.163477 603.774193 413.125341 589.500095 422.529525zM855.131965 139.800255c-10.279111 13.878079-29.819143 16.805758-43.686988 6.557346L603.228771-7.486252c-13.867846-10.248412-16.805758-29.80891-6.557346-43.686988 6.130627-8.28571 15.575744-12.667507 25.142633-12.667507 6.456039 0 12.95301 1.982144 18.544355 6.110161l208.216205 153.844877C862.441441 106.361679 865.380376 125.922177 855.131965 139.800255zM421.730067-7.486252 213.513862 146.357602c-13.888312 10.248412-33.428344 7.319709-43.686988-6.557346-10.248412-13.878079-7.309476-33.438577 6.557346-43.686988l208.216205-153.844877c5.591345-4.128017 12.088316-6.110161 18.544355-6.110161 9.56689 0 19.012006 4.381797 25.142633 12.667507C438.535825-37.296185 435.597913-17.734664 421.730067-7.486252z"  horiz-adv-x="1024" />

    
    <glyph glyph-name="zhiding" unicode="&#58949;" d="M952 891.2 72 891.2c-40 0-72-32-72-72 0-40 32-72 72-72L952 747.2c40 0 72 32 72 72C1024 859.2 991.2 891.2 952 891.2L952 891.2zM952 891.2M564.8 672.8c-1.6 1.6-3.2 3.2-5.6 4.8-0.8 0.8-1.6 1.6-2.4 1.6-0.8 0.8-2.4 1.6-3.2 2.4-0.8 0.8-2.4 1.6-3.2 1.6-0.8 0.8-1.6 0.8-3.2 1.6-0.8 0.8-2.4 0.8-3.2 1.6C544 688 542.4 688 541.6 688.8c-0.8 0.8-2.4 0.8-3.2 0.8-0.8 0.8-2.4 0.8-3.2 1.6-0.8 0-2.4 0.8-3.2 0.8-0.8 0-2.4 0.8-3.2 0.8-1.6 0-2.4 0-4 0.8-0.8 0-2.4 0-3.2 0.8-2.4 0-4.8 0-7.2 0l0 0 0 0c0 0-0.8 0-0.8 0-18.4 0-37.6-6.4-52-20.8L97.6 309.6c-28-28-28-73.6 0-101.6 14.4-14.4 32.8-20.8 51.2-20.8 18.4 0 36.8 7.2 51.2 20.8l243.2 243.2 0-502.4c0-40 32-72 72-72 40 0 72 32 72 72L587.2 448.8 827.2 208c14.4-14.4 32.8-20.8 51.2-20.8s36.8 7.2 51.2 20.8c28 28 28 73.6 0 101.6L564.8 672.8 564.8 672.8zM564.8 672.8"  horiz-adv-x="1024" />

    
    <glyph glyph-name="guang" unicode="&#59010;" d="M384.384 58.88 512 126.016l127.616-67.136-24.384 142.144 103.296 100.672-142.72 20.736L512 451.776 448.192 322.432l-142.72-20.736 103.296-100.672L384.384 58.88zM384.064 276.16l88.384 12.864L512 369.088l39.552-80.128 88.384-12.864L576 213.76l15.104-88.064L512 167.296l-79.104-41.6L448 213.76 384.064 276.16zM424.512 612.608c-10.112 0-18.368-8.192-18.368-18.368 0-10.112 8.192-18.368 18.368-18.368l178.24 0c10.112 0 18.368 8.192 18.368 18.368 0 10.112-8.192 18.368-18.368 18.368L424.512 612.608zM347.456 466.304C367.616 466.304 384 482.688 384 502.848c0 13.504-7.296 25.28-18.24 31.616L365.76 649.088c0 80.64 65.6 146.24 146.24 146.24 80.64 0 146.24-65.6 146.24-146.24l0-114.624C647.296 528.128 640 516.352 640 502.848c0-20.16 16.384-36.544 36.544-36.544 20.224 0 36.544 16.384 36.544 36.544 0 13.504-7.296 25.28-18.24 31.616L694.848 649.088C694.912 749.952 612.864 832 512 832 411.136 832 329.088 749.952 329.088 649.088l0-114.624c-10.88-6.336-18.24-18.112-18.24-31.616C310.912 482.688 327.232 466.304 347.456 466.304zM841.024 596.352c-1.088 9.28-8.896 16.256-18.24 16.256l-73.792 0c-10.112 0-18.368-8.192-18.368-18.368 0-10.112 8.192-18.368 18.368-18.368l57.472 0 68.928-603.264L148.608-27.392l68.928 603.264 46.976 0c10.112 0 18.368 8.192 18.368 18.368 0 10.112-8.192 18.368-18.368 18.368l-63.36 0c-9.344 0-17.152-6.976-18.24-16.256l-73.152-639.936c-0.576-5.184 1.088-10.368 4.544-14.272C117.824-61.76 122.816-64 128.064-64l767.872 0c5.248 0 10.176 2.24 13.696 6.144 3.456 3.904 5.12 9.088 4.544 14.272L841.024 596.352z"  horiz-adv-x="1024" />

    
    <glyph glyph-name="3cshuma" unicode="&#58915;" d="M910.222222 634.311111l-142.222222 0-11.377778 62.577778C750.933333 748.088889 711.111111 782.222222 665.6 782.222222L358.4 782.222222C312.888889 782.222222 273.066667 748.088889 267.377778 702.577778L256 634.311111 113.777778 634.311111c-34.133333 0-56.888889-22.755556-56.888889-56.888889l0-568.888889c0-34.133333 22.755556-56.888889 56.888889-56.888889l796.444444 0c34.133333 0 56.888889 22.755556 56.888889 56.888889l0 568.888889C967.111111 611.555556 944.355556 634.311111 910.222222 634.311111zM910.222222 8.533333 113.777778 8.533333l0 568.888889 136.533333 0L284.444444 577.422222l22.755556 0 17.066667 113.777778C329.955556 713.955556 341.333333 725.333333 358.4 725.333333l312.888889 0c11.377778 0 28.444444-11.377778 34.133333-34.133333l17.066667-113.777778L739.555556 577.422222l34.133333 0L910.222222 577.422222 910.222222 8.533333zM512 548.977778c-125.155556 0-227.555556-102.4-227.555556-227.555556 0-125.155556 102.4-227.555556 227.555556-227.555556s227.555556 102.4 227.555556 227.555556C739.555556 446.577778 637.155556 548.977778 512 548.977778zM512 150.755556c-96.711111 0-170.666667 73.955556-170.666667 170.666667s73.955556 170.666667 170.666667 170.666667 170.666667-73.955556 170.666667-170.666667S608.711111 150.755556 512 150.755556z"  horiz-adv-x="1024" />

    
    <glyph glyph-name="icons64x6469" unicode="&#59008;" d="M572.624 97.888c-28.144-28.144-70.784-28.432-99.168-0.656l-198.928 146.816c-11.12 10.864-18.56 25.792-20.976 42.112l-19.6 271.6c-1.568 10.688 2.128 21.136 9.824 28.096 6.864 6.144 16.208 8.432 24.96 6.096 21.44-5.712 43.968-8.608 66.944-8.592 65.28-0.016 128.256 55.04 161.728 109.568 5.44 8.72 14.352 13.92 24.064 13.936 9.472 0.016 18.224-5.008 23.408-13.424 25.568-41.392 88.496-111.472 162.336-111.472 20.16 0 40.832 2.64 61.408 7.824 8.784 2.224 17.776-0.032 24.672-6.192 7.616-6.784 11.296-17.12 9.856-27.664l-15.856-269.248c-2.224-16.448-9.536-31.616-20.592-42.672L572.624 97.888zM264.816 559.904l20.4-269.056c1.392-9.424 5.536-17.904 11.664-23.904l198.928-146.832c16.016-15.664 38.304-15.472 54.176 0.416l194.112 146.128c6.128 6.128 10.224 14.768 11.52 24.304l15.488 266.496c-21.376-4.992-42.832-7.504-63.856-7.504-79.536 0-148.8 63.824-185.888 120.864-36.32-56.32-105.232-119.504-185.664-119.472C311.472 551.328 287.664 554.208 264.816 559.904zM639.04 448.816c-6.256 6.256-16.384 6.256-22.624 0l-103.568-87.568-87.584 87.568c-6.24 6.256-16.368 6.256-22.624 0s-6.256-16.368 0-22.624l98.4-98.384c3.248-3.248 7.536-4.736 11.792-4.592 4.256-0.144 8.544 1.344 11.776 4.592l114.4 98.384C645.296 432.432 645.296 442.56 639.04 448.816z"  horiz-adv-x="1024" />

    
    <glyph glyph-name="shafachuang" unicode="&#58893;" d="M836.697903 121.821501c0.22085 1.785789 0.730505 5.364363 1.569936 10.483892 1.427032 8.652134 3.25979 18.327574 5.548238 28.757502 6.51958 29.773813 15.296629 59.515449 26.588973 87.098747 2.122561 5.169495 4.312076 10.230064 6.581538 15.165718 6.644495 14.444207 16.432859 30.090599 29.096273 47.21179 5.564227 7.517903 42.835957 52.86096 45.370039 60.487789 30.521307 91.890898-53.600459 176.311461-164.46909 131.805836-3.417683-1.37107-6.422645-3.619946-8.703099-6.51898l-157.737654-200.512453 16.50481 8.029556L384.662583 303.830899c-11.614525 0-21.030741-9.451592-21.030741-21.108688 0-11.656097 9.416016-21.109688 21.030741-21.109688l252.385283 0c6.437635 0 12.519512 2.958994 16.510806 8.026558l157.739653 200.518049-8.701101-6.51858c76.921647 30.875466 128.37756-20.76732 108.953729-79.264059 0.447696 1.35748-4.001287-4.488557-10.595816-12.511517-14.649068-17.813323-20.222289-24.765609-28.649576-36.166879-14.243343-19.257943-25.483522-37.21177-33.515077-54.685723-2.519292-5.481284-4.949644-11.087483-7.291057-16.8136-12.311653-30.062618-21.759247-62.077711-28.771493-94.072019-2.446341-11.178421-4.418005-21.583366-5.959959-30.941022-0.935366-5.696138-1.527964-9.829336-1.81477-12.163753-1.43103-11.561162 6.752422-22.106012 18.27461-23.543038C824.756199 102.040912 835.265074 110.250346 836.697903 121.821501L836.697903 121.821501zM229.045491 127.019976c-0.288804 2.334417-0.878404 6.467615-1.81477 12.163753-1.540955 9.357656-3.514617 19.762601-5.964356 30.941022-7.003652 31.994308-16.456842 64.009402-28.765497 94.072019-2.342412 5.726118-4.773763 11.332317-7.294055 16.8136-8.033953 17.474153-19.269335 35.42798-33.514277 54.685723-8.431683 11.40127-14.003905 18.353556-28.652574 36.166879-6.59353 8.02296-11.040515 13.868997-10.592218 12.511517-19.426229 58.496739 32.033681 110.139525 108.947933 79.264059l-8.698502 6.51858 92.239662-117.248705c7.19812-9.149796 20.422554-10.708739 29.541371-3.490633 9.115819 7.226101 10.671765 20.494505 3.473045 29.6459l-92.238662 117.250304c-2.278855 2.899034-5.277822 5.14791-8.693506 6.51898-110.876026 44.505625-194.998191-39.914738-164.475086-131.805836 2.531284-7.626829 39.811008-52.970086 45.374636-60.487789 12.660816-17.121392 22.451778-32.767783 29.094274-47.21179 2.266463-4.935654 4.459976-9.996223 6.57854-15.165718 11.292344-27.583299 20.072391-57.324934 26.591371-87.098747 2.28585-10.429929 4.120606-20.105369 5.544241-28.757502 0.841829-5.119529 1.353482-8.698103 1.575932-10.483892 1.432029-11.571155 11.936307-19.780589 23.464091-18.344562C222.296667 104.913964 230.47852 115.458815 229.045491 127.019976L229.045491 127.019976zM237.437401 29.444533l0 84.427558-21.03314-21.111686 599.51393 0-21.029542 21.111686 0-84.427558c0-11.657096 9.412618-21.111686 21.029542-21.111686 11.616124 0 21.030741 9.45459 21.030741 21.111686l0 84.427558c0 11.650101-9.414617 21.104691-21.030741 21.104691L216.404262 134.976782c-11.614126 0-21.03274-9.45459-21.03274-21.104691l0-84.427558c0-11.657096 9.418614-21.111686 21.03274-21.111686C228.021186 8.332846 237.437401 17.787236 237.437401 29.444533L237.437401 29.444533zM216.404262 504.341153l0 147.697461c0 34.996273 28.27483 63.370435 63.137992 63.370435l441.597397 0c34.869359 0 63.133995-28.369765 63.133995-63.370435l0-147.697461 42.062282 0 0 147.697461c0 58.314863-47.09387 105.584214-105.196477 105.584214L279.542254 757.622828c-58.094412 0-105.201473-47.274348-105.201473-105.584214l0-147.697461L216.404262 504.341153 216.404262 504.341153z"  horiz-adv-x="1024" />

    
    <glyph glyph-name="wodezuji" unicode="&#58924;" d="M171.688533 245.261653 171.688533 245.261653c-12.869973 0-25.217707 5.12-34.317653 14.219947l-123.15136 123.221333c-18.95936 18.961067-18.95936 49.701547 0 68.63872 18.961067 18.961067 49.677653 18.961067 68.63872 0l88.832-88.854187 88.854187 88.854187c18.961067 18.961067 49.677653 18.961067 68.63872 0 18.961067-18.937173 18.961067-49.675947 0-68.63872l-123.175253-123.221333C196.90624 250.381653 184.558507 245.261653 171.688533 245.261653zM617.481813-107.88352c-155.2896 0-303.208107 74.610347-395.641173 199.56224-15.952213 21.521067-11.400533 51.95264 10.14272 67.879253 21.521067 15.9744 51.95264 11.424427 67.879253-10.14272 75.34592-101.819733 191.102293-160.22016 317.617493-160.22016 217.669973 0 394.765653 177.09568 394.765653 394.78784 0 217.695573-177.09568 394.81344-394.765653 394.81344-217.71776 0-394.837333-177.117867-394.837333-394.81344 0-16.638293 1.042773-33.250987 3.08224-49.368747 3.365547-26.59328-15.476053-50.863787-42.069333-54.275413-26.212693-3.31776-50.884267 15.499947-54.25152 42.09152-2.5344 20.1472-3.838293 40.861013-3.838293 61.550933 0 271.235413 220.680533 491.892053 491.91424 491.892053S1109.324373 655.218347 1109.324373 383.982933C1109.324373 112.77312 888.717227-107.88352 617.481813-107.88352zM757.411413 261.973333 563.25248 261.973333c-26.806613 0-72.292693 46.80704-72.292693 73.63584L490.959787 578.30912c0 26.806613 21.835093 48.539307 48.64 48.539307 26.830507 0 48.64-21.732693 48.64-48.539307L588.239787 359.253333l169.171627 0c26.830507 0 48.539307-21.809493 48.539307-48.64S784.24192 261.973333 757.411413 261.973333z"  horiz-adv-x="1110" />

    
    <glyph glyph-name="naiping" unicode="&#59002;" d="M427.704331 138.940887 316.432798 138.940887C295.965268 138.940887 279.346753 123.338359 279.346753 104.037293 279.346753 84.741833 295.965268 69.144913 316.432798 69.144913L427.704331 69.144913C448.183773 69.144913 464.794842 84.741833 464.794842 104.037293 464.794842 123.338359 448.183773 138.940887 427.704331 138.940887L427.704331 138.940887ZM501.885354 284.649219 316.432798 284.649219C295.965268 284.649219 279.346753 269.051359 279.346753 249.754735 279.346753 230.451105 295.965268 214.853245 316.432798 214.853245L501.885354 214.853245C522.358839 214.853245 538.977354 230.451105 538.977354 249.754735 538.977354 269.051359 522.358839 284.649219 501.885354 284.649219L501.885354 284.649219ZM316.432798 357.505583 427.704331 357.505583C448.183773 357.505583 464.794842 373.825873 464.794842 393.933763 464.794842 414.047497 448.183773 430.367792 427.704331 430.367792L316.432798 430.367792C295.965268 430.367792 279.346753 414.047497 279.346753 393.933763 279.346753 373.825873 295.965268 357.505583 316.432798 357.505583L316.432798 357.505583ZM828.378645 621.320488C838.615388 637.82358 844.845284 657.023322 844.845284 677.746877L844.845284 714.17652C844.845284 774.431451 794.924225 823.461062 733.57375 823.461062L605.649455 823.427427C593.859704 825.397269 560.804331 854.027976 537.661103 882.361818 530.396365 891.291183 520.11942 895.48386 507.620915 896.026407 496.011332 895.701756 485.180486 890.017439 478.427958 880.722477 459.181393 854.027976 430.880335 826.122615 422.346986 823.461062L288.937286 823.461062C227.586811 823.461062 177.659797 774.431451 177.659797 714.17652 177.659797 711.25716 179.233932 704.22183 181.922772 695.404009 189.696286 669.911436 207.695363 587.863522 223.001053 588.959338 238.866416 590.095224 251.840819 705.427947 251.840819 714.17652 251.840819 734.24931 268.499536 750.604701 288.937286 750.604701L422.346986 750.604701C454.05781 750.604701 486.437186 777.413268 510.254922 803.244957 536.329954 777.596067 571.635177 750.604701 604.799246 750.604701L733.613953 750.604701C754.087438 750.604701 770.698508 734.24931 770.698508 714.17652L770.698508 677.746877C770.698508 657.679936 754.087438 641.318696 733.613953 641.318696L288.937286 641.318696C286.703815 641.318696 284.778563 640.445649 282.667188 640.08005L255.738971 640.08005C190.752405 640.08005 139.830751 588.462006 139.754813 522.489123L139.830751-8.667678C139.830751-40.069617 152.219072-69.649416 174.803932-91.836826 197.388792-114.052019 227.44238-126.293702 259.559696-126.293702L763.619893-126.293702C795.813147-126.293702 825.854823-114.052019 848.445639-91.836826 871.0305-69.649416 883.460511-40.069617 883.424776-8.702776L883.424776 522.385293C883.494758 553.815018 871.064746 583.361183 848.479886 605.582227 856.04918 605.582227 835.539154 616.7666 828.378645 621.320488ZM816.542267-14.984139C816.542267-27.121538 811.755175-38.556078 803.049444-47.112292 794.343718-55.662564 782.731538-60.399835 770.408254-60.399835L257.88375-60.399835C245.519616-60.399835 233.948288-55.662564 225.206247-47.112292 216.465718-38.556078 211.672574-27.121538 211.714937-14.944016L211.643827 524.776573C211.643827 551.134706 229.545494 570.266567 254.190547 570.266567L770.408254 570.238334C782.731538 570.238334 794.343718 565.530782 803.049444 556.946334 811.755175 548.354456 816.542267 536.919918 816.542267 524.742396L816.542267-14.984139ZM511.179843 895.674285C500.650075 894.415522 491.916382 890.225393 485.518748 882.361818 462.37552 854.027976 429.320147 825.397269 417.530397 823.427427L289.606102 823.461062C228.255627 823.461062 178.334569 774.431451 178.334569 714.17652L178.334569 677.746877C178.334569 657.023322 184.564464 637.82358 194.801207 621.320488 187.640698 616.7666 167.130671 605.582227 174.699966 605.582227 152.115106 583.361183 139.685094 553.815018 139.755077 522.385293L139.755077-8.702776C139.719341-40.069617 152.149353-69.649416 174.734213-91.836826 197.325029-114.052019 227.366706-126.293702 259.559959-126.293702L511.179843-126.293702 511.179843-60.399835 252.771597-60.399835C240.448314-60.399835 228.836135-55.662564 220.130405-47.112292 211.424675-38.556078 206.637583-27.121538 206.637583-14.984139L206.637583 524.742396C206.637583 536.919918 211.424675 548.354456 220.130405 556.946334 228.836135 565.530782 240.448314 570.238334 252.771597 570.238334L511.179843 570.252467 511.179843 641.318696 289.5659 641.318696C269.092414 641.318696 252.481344 657.679936 252.481344 677.746877L252.481344 714.17652C252.481344 734.24931 269.092414 750.604701 289.5659 750.604701L418.380605 750.604701C450.810536 750.604701 485.287876 776.414303 511.179851 801.539959L511.179843 895.674285Z"  horiz-adv-x="1024" />

    
    <glyph glyph-name="zuo" unicode="&#58916;" d="M512 896c-282.752 0-512-229.248-512-512 0-282.816 229.248-512 512-512s512 229.184 512 512c0 282.752-229.248 512-512 512zM621.248 157.696l-45.248-45.248-271.488 271.552 271.488 271.552 45.248-45.248-226.24-226.304 226.24-226.304z"  horiz-adv-x="1024" />

    
    <glyph glyph-name="you" unicode="&#58918;" d="M512-128c282.752 0 512 229.248 512 512 0 282.816-229.248 512-512 512s-512-229.184-512-512c0-282.752 229.248-512 512-512zM402.752 610.304l45.248 45.248 271.488-271.552-271.488-271.488-45.248 45.248 226.24 226.24-226.24 226.304z"  horiz-adv-x="1024" />

    
    <glyph glyph-name="shang" unicode="&#58919;" d="M1024.064 384c0 282.752-229.248 512-512 512-282.816 0-512-229.248-512-512s229.184-512 512-512c282.752 0 512 229.248 512 512zM285.76 274.752l-45.248 45.248 271.552 271.488 271.488-271.488-45.248-45.248-226.24 226.24-226.304-226.24z"  horiz-adv-x="1024" />

    
    <glyph glyph-name="xia" unicode="&#58920;" d="M0 384c0-282.752 229.248-512 512-512s512 229.248 512 512-229.184 512-512 512c-282.752 0-512-229.248-512-512zM738.24 493.248l45.248-45.248-271.488-271.488-271.488 271.488 45.248 45.248 226.24-226.24 226.24 226.24z"  horiz-adv-x="1024" />

    
    <glyph glyph-name="dayu-gengduo" unicode="&#58901;" d="M262.4 896l-38.4-44.8L704 384l-480-467.2 38.4-44.8 537.6 512z"  horiz-adv-x="1024" />

    
    <glyph glyph-name="huanqiunongxun" unicode="&#58885;" d="M511.137865 833.221188c-247.957325 0-448.570365-200.809515-448.570366-448.768887 0-247.957325 200.614064-448.793446 448.570366-448.793446 247.934812 0 448.990944 200.836121 448.990944 448.793446 0 247.958348-201.056132 448.768887-448.990944 448.768887zM821.909817 563.954535H689.507298c-14.58109 56.114019-35.002189 109.962437-61.927421 159.770843 82.570577-28.278043 151.247726-85.501326 194.32994-159.770843zM511.358899 741.905436c37.467333-53.849442 66.63463-113.75788 85.724407-177.950901H425.635515c19.066241 64.194044 48.233538 124.102483 85.723384 177.950901zM163.98226 294.688905c-7.390317 28.722158-11.652388 58.801221-11.652388 89.763396 0 30.964222 4.26207 61.017702 11.652388 89.739861h151.46876c-3.595898-29.388331-6.058996-59.219753-6.058996-89.739861 0-30.521131 2.463098-60.376089 6.2831-89.763396H163.98226z m36.580127-89.76442h132.402519c14.58416-56.089459 35.005258-109.936855 61.928444-159.992901-82.5716 28.28009-151.247726 85.72543-194.330963 159.992901zM332.964906 563.954535H200.562387c43.083238 74.269517 111.759363 131.713834 194.330963 159.992901-26.923186-50.030463-47.343261-103.878882-61.928444-159.992901z m178.393993-536.954345c-37.244252 53.847395-66.434062 113.755834-85.723384 177.924295h171.447791c-19.312858-64.168462-48.479131-124.0769-85.724407-177.924295z m105.010658 267.688715H406.324704c-4.264117 29.387307-7.169283 59.243289-7.169283 89.763396 0 30.520107 2.90619 60.35153 7.169283 89.739861h210.044853c4.26207-29.388331 7.17133-59.219753 7.17133-89.739861 0-30.521131-2.90926-60.377112-7.17133-89.763396z m11.431354-249.53424c26.924209 50.055023 47.345308 103.680361 61.953004 159.76982h132.378983c-43.305295-74.267471-111.982444-131.490753-194.331987-159.76982z m79.220273 249.53424c3.596921 29.387307 6.2831 59.243289 6.2831 89.763396 0 30.520107-2.462075 60.35153-6.2831 89.739861h151.46876c7.391341-28.722158 11.900028-58.775638 11.900028-89.739861 0-30.962176-4.261047-61.041238-11.900028-89.763396H707.021184z"  horiz-adv-x="1024" />

    
    <glyph glyph-name="yundongxie1" unicode="&#58930;" d="M927.670272 511.791104c-7.570432 18.63168-17.813504 23.365632-25.054208 24.054784a21.521408 21.521408 0 0 1-2.24768 0.118784c-12.776448 0-20.744192-11.5456-22.998016-15.300608-0.36352-0.54784-40.640512-54.78912-92.34432-54.821888h-0.119808c-27.969536 0-52.242432 7.190528-70.198272 20.794368-19.818496 15.014912-31.968256 37.352448-36.1216 66.39104-3.64032 25.428992-11.431936 41.841664-23.824384 50.177024-5.476352 3.695616-11.55584 5.568512-18.06848 5.568512-8.699904 0-16.207872-3.296256-20.687872-5.264384l-1.984512-0.8448c-2.520064-0.982016-8.615936-4.209664-40.766464-21.583872l-0.335872-0.182272c-62.251008-33.624064-251.67872-135.94624-275.361792-136.864768-194.88256 0-217.842688-87.318528-226.486272-120.188928-0.484352-1.83808-0.9216-3.50208-1.340416-4.964352l-0.082944 0.03584-0.579584-1.949696c-8.645632-29.123584-4.604928-61.901824-1.929216-83.607552 0.490496-4.035584 0.914432-7.522304 1.179648-10.382336 0.094208-1.08032-0.043008-2.398208-0.201728-3.92192-0.760832-7.28576-1.906688-18.297856 19.155968-29.574144 24.2432-12.982272 71.687168-23.430144 145.045504-31.945728 20.025344-2.32448 50.520064-2.51392 82.646016-2.51392 5.12 0 10.372096 0.004096 15.747072 0.01024 5.62688 0.006144 11.38688 0.014336 17.268736 0.014336 153.534464 0 394.025984 6.977536 509.599744 10.33216l1.33632 0.037888c35.495936 1.055744 61.022208 1.804288 66.194432 1.804288 0.71168 0 1.35168 0.04608 1.917952 0.136192 4.559872 0.612352 12.187648 1.632256 18.753536 16.528384 7.465984 16.935936 12.099584 48.692224 13.773824 94.386176 4.580352 38.252544-17.149952 197.436416-31.885312 233.521152z m-449.98656-24.003584a8007.182336 8007.182336 0 0 1 26.432512 13.959168l8.951808-19.828736a1462.376448 1462.376448 0 0 1-26.625024-13.520896l-8.759296 19.390464z m51.684352 27.401216c9.472 5.05856 19.275776 10.31168 29.427712 15.768576l10.1376-22.4512a2298.566656 2298.566656 0 0 1-30.176256-14.106624l-9.389056 20.789248z m54.624256 29.341696l6.821888 3.683328c16.971776 9.165824 31.65184 17.093632 33.808384 18.115584a50.906112 50.906112 0 0 1 3.279872 1.383424c2.31424 1.01888 6.19008 2.724864 8.699904 2.724864 0.589824 0 1.04448-0.09728 1.298432-0.269312 0.203776-0.139264 4.977664-3.622912 7.814144-23.371776 0.188416-1.323008 0.402432-2.69312 0.658432-4.228096a2686.184448 2686.184448 0 0 1-51.422208-22.296576l-10.958848 24.25856zM320.79872 411.641856c7.294976 2.694144 15.947776 6.284288 26.341376 10.930176l10.962944-24.28416c-9.885696-4.289536-18.574336-7.256064-27.087872-9.249792l-10.216448 22.603776z m605.743104-128.289792a17.79712 17.79712 0 0 1-0.232448-2.463744 540.947456 540.947456 0 0 0-0.446464-9.988096c-17.179648-1.968128-53.443584-5.031936-129.435648-8.792064 9.199616 26.206208 37.327872 52.102144 59.66848 69.436416 24.471552 18.981888 49.857536 33.928192 64.149504 41.826304 5.440512-43.911168 7.906304-79.092736 6.296576-90.018816z m-3.168256-43.40224c-1.676288-15.439872-3.735552-27.817984-5.747712-34.543616-9.706496-0.232448-27.738112-0.736256-59.55584-1.670144-115.495936-3.378176-355.822592-10.407936-509.986816-10.407936-52.306944 0-90.54208 0.822272-113.64352 2.446336-109.869056 7.713792-124.048384 23.933952-131.664896 32.646144-0.560128 0.64-1.09568 1.252352-1.637376 1.825792a550.916096 550.916096 0 0 1-1.006592 8.502272c-1.24416 10.145792-2.912256 23.749632-2.935808 37.279744a136.413184 136.413184 0 0 1 10.082304-6.085632l2.011136-1.101824c35.770368-19.61984 61.615104-33.796096 143.940608-41.78432 1.2288-0.247808 2.486272-0.388096 3.7632-0.4096l0.566272-0.002048c51.19488-4.786176 110.95552-7.21408 177.619968-7.21408 32.202752 0 66.404352 0.562176 101.650432 1.668096 193.286144 6.039552 309.881856 11.358208 366.94016 16.736256 7.532544 0.710656 13.976576 1.404928 19.60448 2.11456zM384.08192 410.969088l-10.745856 23.788544a1944.66816 1944.66816 0 0 1 25.58464 12.532736l10.176512-22.541312c-9.48736-5.388288-17.703936-9.915392-25.015296-13.779968z m0.305152-33.9968c10.15808-12.145664 29.55264-31.164416 51.34848-31.164416 1.666048 0 3.311616 0.109568 4.872192 0.320512 7.993344 0.986112 23.8336 5.638144 45.809664 12.094464 36.690944 10.79808 104.982528 30.896128 140.16 30.896128 9.15968 0 13.637632-1.36192 15.785984-2.52416 7.254016-5.101568 69.113856-47.12448 160.226304-63.301632a222.481408 222.481408 0 0 1-4.205568-4.673536c-95.005696 11.295744-149.602304 50.732032-155.59168 55.24992l-0.637952 0.44032c-7.346176 4.412416-17.391616 6.557696-30.713856 6.557696-35.974144 0-92.539904-16.237568-147.39456-32.868352l-0.88576-0.268288c-18.030592-5.453824-35.059712-10.600448-40.827904-11.339776-0.17408-0.02048-0.36352-0.031744-0.560128-0.031744-8.328192 0-26.65984 15.095808-44.976128 36.931584a426.991616 426.991616 0 0 1 7.590912 3.68128z m447.241216-26.586112c-97.206272 10.80832-167.28576 57.583616-175.02208 62.925824l-0.444416 0.287744c-7.279616 4.230144-17.238016 6.28736-30.4384 6.28736-35.8144 0-92.01152-15.639552-146.506752-31.659008l-0.289792-0.088064c-18.285568-5.367808-35.5584-10.43968-41.366528-11.163648-0.47104-0.054272-0.950272-0.079872-1.42336-0.079872-6.69184 0-15.680512 5.187584-24.87808 14.308352 12.178432 6.749184 27.106304 15.332352 46.713856 26.856448 63.650816 37.434368 156.850176 77.975552 195.892224 94.452736 19.030016-55.610368 64.300032-84.989952 131.042304-84.989952h0.151552c58.067968 0.031744 100.219904 42.679296 114.337792 62.690304 4.939776-15.448064 10.875904-45.828096 16.524288-84.70016-18.678784-9.908224-53.33504-29.70624-84.292608-55.128064z m-406.10304-44.837888c7.969792 1.000448 23.769088 5.797888 45.626368 12.430336l0.374784 0.111616c39.63904 12.02176 105.979904 32.146432 140.821504 32.146432 8.865792 0 13.228032-1.33632 15.341568-2.486272 6.146048-4.794368 57.417728-42.909696 150.32832-57.6-5.476352-9.91232-9.216-19.802112-11.131904-29.444096-62.45376-2.85184-140.109824-5.7344-230.838272-8.56576-34.97472-1.089536-68.744192-1.64352-100.37248-1.64352-65.787904 0-124.739584 2.38592-175.235072 7.088128-3.452928 8.926208-4.859904 38.916096 2.039808 96.346112l7.59808-0.02048c3.072-0.012288 6.028288-0.021504 8.885248-0.021504 26.737664 0 46.145536 0.564224 69.480448 7.988224 13.827072-17.813504 46.96576-56.554496 73.5232-56.554496a26.742784 26.742784 0 0 1 3.5584 0.22528z m-1.093632 154.615808a4322.079744 4322.079744 0 0 1 27.911168 14.379008l8.891392-19.698688a772.419584 772.419584 0 0 1-16.392192-9.362432 4370.3296 4370.3296 0 0 0-10.894336-6.38464l-9.516032 21.066752z m-157.75232-75.200512a948.992 948.992 0 0 0 3.2512 20.100096 562.536448 562.536448 0 0 0 22.228992 0.625664l9.213952-20.396032c-7.3216-0.321536-15.11936-0.367616-21.91872-0.367616-4.017152 0-8.259584 0.02048-12.775424 0.037888z m-35.397632-124.297216c-103.975936 12.424192-118.28736 33.007616-126.86336 45.343744-0.792576 1.139712-1.55136 2.230272-2.332672 3.241984 0.58368 1.754112 1.150976 3.753984 1.789952 6.013952 6.90176 24.380416 21.211136 74.93632 137.174016 87.56224-6.279168-37.936128-15.315968-103.88992-9.767936-142.16192z"  horiz-adv-x="1024" />

    
    <glyph glyph-name="yonghuming" unicode="&#58921;" d="M598.215594 304.725492c176.913269-29.033243 227.892337-155.281599 227.892337-201.183022 0-62.770626-216.137619-77.698616-313.866431-77.698616-97.731882 0-313.8695 14.929014-313.8695 77.698616 0 45.093011 50.304709 173.801395 227.202629 201.124693 11.322883 1.74883 26.192545 38.266535 16.544815 44.936445-57.973366 40.079834-102.541421 109.466134-102.541421 221.380016 0 95.358835 71.690786 171.174568 172.664501 171.174568 100.967576 0 172.661432-75.81471 172.661432-171.174568 0-110.262266-46.89403-181.300182-105.062847-221.801619C570.839083 342.914256 587.120908 306.545954 598.215594 304.725492z"  horiz-adv-x="1024" />

    
    <glyph glyph-name="sanjiaoxing2-copy" unicode="&#58928;" d="M142.746 384l525.722-492.749v985.498l-525.722-492.749z"  horiz-adv-x="1024" />

    
    <glyph glyph-name="naozhong1-copy" unicode="&#58906;" d="M820.553 20.992c11.311-11.283 22.273-22.213 33.215-33.155 18.605-18.598 37.391-37.021 55.753-55.86 18.845-19.329 10.472-50.483-15.264-57.023-13.133-3.333-24.439 0.613-34.010 10.223-29.836 29.962-59.791 59.791-89.62 89.761-1.788 1.795-2.849 4.315-3.508 5.329-170.932-96.959-339.505-96.945-509.006-0.765-1.19-1.135-3.078-2.849-4.887-4.658-30.239-30.211-60.323-60.591-90.748-90.615-18.806-18.55-49.334-11.171-56.741 13.542-4.079 13.603-0.349 25.4 9.658 35.388 27.437 27.375 54.798 54.817 82.26 82.164 1.815 1.809 4.18 3.059 6.385 4.645-113.82 102.397-172.052 228.132-167.26 380.022 4.207 133.167 57.393 245.437 155.346 335.7 188.986 174.153 485.967 163.109 664.488-24.033 185.322-194.275 174.95-509.975-36.059-690.666v0zM104.023 383.666c0.027-224.589 182.5-407.807 406.259-407.933 226.779-0.122 409.091 181.268 409.453 407.396 0.364 225.361-182.682 408.66-407.853 408.411-225.286-0.248-407.885-182.856-407.859-407.873v0zM201.064 894.211c5.921-1.129 12.145-1.464 17.71-3.548 14.619-5.464 23.429-21.219 20.955-36.045-2.789-16.655-15.734-28.7-32.255-28.996-30.474-0.55-58.386-8.826-82.678-27.402-35.855-27.428-53.668-64.179-54.831-109.171-0.356-13.994-6.949-24.202-19.43-30.217-12.023-5.795-23.826-4.403-34.554 3.393-9.591 6.963-14.154 16.81-13.805 28.598 2.112 71.89 32.62 128.516 92.115 168.989 32.019 21.783 67.944 32.209 106.772 34.399v0zM1021.742 692.919c0.411-5.377-0.269-14.584-6.048-22.778-8.571-12.146-23.781-17.516-37.908-13.221-14.14 4.302-23.812 16.965-24.027 32.906-0.337 25.494-6.568 49.32-20.279 70.739-26.776 41.853-65.43 63.24-115.011 64.893-24.526 0.814-40.495 22.819-32.673 45.194 4.86 13.9 17.624 23.013 33.103 22.589 76.022-2.077 134.282-35.583 174.333-100.099 18.172-29.27 26.958-61.659 28.509-100.225v0zM478.083 485.834c0.005 33.82-0.109 67.648 0.060 101.468 0.081 15.299 9.033 27.631 22.732 32.321 13.49 4.625 28.476 0.324 37.484-10.821 5.733-7.077 7.716-15.304 7.702-24.297-0.067-59.891 0.027-119.784-0.141-179.677-0.012-5.082 1.358-8.663 5.009-12.292 39.997-39.729 79.86-79.585 119.643-119.523 15.229-15.299 14.866-37.967-0.485-51.108-13.307-11.392-32.489-11.077-45.535 1.196-9.403 8.846-18.35 18.181-27.483 27.315-35.050 35.044-69.934 70.244-105.24 105.018-9.72 9.572-14.121 20.224-13.906 33.861 0.498 32.177 0.161 64.357 0.161 96.539v0zM478.083 485.834z"  horiz-adv-x="1024" />

    
    <glyph glyph-name="gouwuche-copy" unicode="&#58891;" d="M364.8 256h403.2c19.2 0 38.4 12.8 44.8 32l76.8 332.8c6.4 12.8 0 25.6-6.4 38.4s-25.6 19.2-38.4 19.2h-550.4l-19.2 83.2h-121.6c-12.8 0-25.6-6.4-25.6-19.2s12.8-25.6 25.6-25.6h83.2l38.4-166.4c0 0 0 0 0 0 0-6.4 0-6.4 0-12.8l57.6-236.8c-25.6-12.8-51.2-44.8-51.2-83.2 0-25.6 12.8-44.8 25.6-57.6-12.8-12.8-25.6-38.4-25.6-57.6 0-44.8 38.4-83.2 83.2-83.2s83.2 32 83.2 76.8c0 12.8-6.4 25.6-6.4 38.4h275.2c-6.4-12.8-6.4-25.6-6.4-38.4 0-44.8 38.4-83.2 83.2-83.2s83.2 38.4 83.2 83.2c0 44.8-32 76.8-76.8 83.2 0 0-6.4 0-6.4 0h-428.8c0 0 0 0 0 0-19.2 0-38.4 19.2-38.4 38.4 6.4 19.2 19.2 38.4 38.4 38.4zM787.2 134.4c19.2 0 38.4-19.2 38.4-38.4s-12.8-32-38.4-32c-19.2 0-38.4 19.2-38.4 38.4s19.2 32 38.4 32zM364.8 64c-19.2 0-38.4 19.2-38.4 38.4s19.2 38.4 38.4 38.4c0 0 0 0 0 0s0 0 0 0c19.2 0 38.4-19.2 38.4-38.4 0-25.6-19.2-38.4-38.4-38.4zM768 300.8h-384l-51.2 224h486.4l-51.2-224zM844.8 633.6l-12.8-64h-512l-12.8 57.6 537.6 6.4z"  horiz-adv-x="1024" />

    
    <glyph glyph-name="qiche" unicode="&#58997;" d="M949.332 326.724c-3.657 48.948-35.242 92.183-80.49 112.342l-40.648 191.109c-14.878 69.887-85.075 126.727-156.524 126.727H351.41c-71.45 0-141.667-56.839-156.524-126.727L154.22 439.066c-45.25-20.178-76.814-63.394-80.472-112.342l-9.206-122.598c-3.945-52.668 26.015-100.158 73.032-119.37 10.809-42.332 48.99-73.218 94.198-73.218 42.003 0 77.758 26.221 91.362 64.053h376.812c13.605-37.832 49.36-64.053 91.342-64.053 45.209 0 83.43 30.886 94.239 73.218 47.018 19.212 76.956 66.681 72.991 119.37l-9.185 122.598z m-94.383-194.458c-11.897-2.775-20.508-13.09-21.125-25.296-1.13-22.831-19.809-40.73-42.536-40.73-22.151 0-40.359 16.81-42.332 39.107-1.233 14.117-13.068 24.925-27.248 24.925H301.352c-14.179 0-25.995-10.808-27.249-24.925-1.973-22.297-20.159-39.106-42.33-39.106-22.708 0-41.386 17.877-42.517 40.729-0.597 12.207-9.227 22.521-21.105 25.296-31.358 7.274-51.517 35.139-49.071 67.771l9.205 122.577c2.385 31.851 26.407 60.764 58.442 70.279a27.403 27.403 0 0 1 19.358 22.974c0.165 1.561 0.288 3.144 0.41 4.685 0.063 0.802 0.063 1.623 0.206 2.364l41.674 195.875c9.617 45.23 56.798 83.41 103.035 83.41h320.26c46.216 0 93.397-38.18 103.035-83.41l41.652-195.855c0.166-0.822 0.166-1.623 0.228-2.424 0.102-1.521 0.226-3.043 0.41-4.584 1.274-10.85 8.899-19.911 19.38-23.035 32.014-9.515 56.037-38.428 58.42-70.28l9.187-122.576c2.464-32.612-17.715-60.497-49.033-67.771zM300.859 413.256H722.2c10.151 0 18.885 3.76 24.248 10.233 5.795 6.68 8.138 15.824 6.617 25.75-0.123 0.657-0.246 1.315-0.391 1.972l-33.104 143.846c-4.153 22.686-26.592 41.632-49.69 41.632H353.218c-23.097 0-45.578-18.946-49.728-41.632L270.405 451.21a22.005 22.005 0 0 1-0.39-1.972c-1.54-9.925 0.801-19.07 6.268-25.359 5.711-6.863 14.424-10.624 24.576-10.624z m55.75 168.73h309.863l26.22-114.028H330.368l26.24 114.028zM267.917 319.572c-34.13 0-61.811-27.68-61.811-61.812 0-34.152 27.68-61.812 61.811-61.812 34.133 0 61.793 27.66 61.793 61.812 0 34.132-27.66 61.812-61.793 61.812zM755.163 319.572c-34.133 0-61.812-27.68-61.812-61.812 0-34.152 27.68-61.812 61.812-61.812 34.151 0 61.81 27.66 61.81 61.812 0 34.132-27.659 61.812-61.81 61.812z"  horiz-adv-x="1024" />

    
    <glyph glyph-name="money-" unicode="&#59089;" d="M331.5-10.4c-81.6 0-158.5 17-216.5 47.9-60.6 32.3-94 76.1-94 123.5 0 1.4-0.1 3.2-0.2 5-0.3 4.8-0.6 10.2 0.4 15.4 1.4 7 8.2 11.7 15.2 10.3 7.1-1.4 11.7-8.2 10.3-15.2-0.4-2-0.2-5.7 0-9 0.1-2.1 0.2-4.3 0.2-6.5 0-37.3 28.5-73 80.3-100.5 54.4-28.9 126.9-44.9 204.3-44.9 74.2 0 144.7 14.8 198.3 41.8 6.4 3.2 14.2 0.6 17.5-5.8 3.2-6.4 0.6-14.2-5.8-17.5-57.2-28.7-131.8-44.5-210-44.5zM331.5 136.1c-53.6 0-116.9 14.2-178.2 40-53.6 22.6-101.7 52.4-128.6 79.8-5 5.1-5 13.4 0.2 18.4 5.1 5 13.4 5 18.4-0.2 24.6-25.1 69.5-52.7 120.2-74 58.2-24.5 117.9-37.9 168.1-37.9 32 0 63.5 2.8 93.5 8.2 7.1 1.3 13.8-3.4 15.1-10.5 1.3-7.1-3.4-13.8-10.5-15.1-31.6-5.8-64.6-8.7-98.2-8.7zM331.5 282.7c-53.5 0-116.7 14.4-178.2 40.7-53.5 22.8-101.5 52.9-128.6 80.4-5 5.1-5 13.4 0.2 18.4 5.1 5 13.3 5 18.4-0.2 45.5-46.3 174.4-113.3 288.3-113.3 18.9 0 37.8 1 56.2 2.9 7.1 0.7 13.5-4.4 14.3-11.6 0.7-7.1-4.4-13.5-11.6-14.3-19.3-1.9-39.2-3-59-3zM331.5 429.3c-81.6 0-158.5 17-216.5 47.9-60.6 32.3-94 76.1-94 123.5s33.4 91.2 94 123.5c58 30.9 134.9 47.9 216.5 47.9s158.5-17 216.5-47.9c60.6-32.3 94-76.1 94-123.5 0-7.2-5.8-13-13-13s-13 5.8-13 13c0 37.3-28.5 73-80.3 100.5-54.4 28.9-126.9 44.9-204.3 44.9s-149.9-15.9-204.3-44.9c-51.6-27.5-80.1-63.2-80.1-100.5s28.5-73 80.3-100.5c54.4-28.9 126.9-44.9 204.3-44.9 31.7 0 62.9 2.7 92.6 8 7.1 1.3 13.8-3.4 15.1-10.5s-3.4-13.8-10.5-15.1c-31.3-5.5-64-8.4-97.3-8.4zM34 167.2c-7.2 0-13 5.8-13 13v420.5c0 7.2 5.8 13 13 13s13-5.8 13-13v-420.5c0-7.2-5.8-13-13-13zM691.4-10.4c-84.2 0-163.4 32.8-223 92.4s-92.4 138.7-92.4 223 32.8 163.4 92.4 223c59.6 59.6 138.7 92.4 223 92.4s163.4-32.8 223-92.4c59.6-59.6 92.4-138.7 92.4-223s-32.8-163.4-92.4-223c-59.5-59.6-138.7-92.4-223-92.4zM691.4 594.2c-77.3 0-149.9-30.1-204.6-84.7-54.6-54.6-84.7-127.3-84.7-204.6s30.1-149.9 84.7-204.6 127.3-84.7 204.6-84.7 149.9 30.1 204.6 84.7c54.6 54.6 84.7 127.3 84.7 204.6s-30 149.9-84.7 204.6-127.3 84.7-204.6 84.7zM691.4 315.9c-3.3 0-6.7 1.3-9.2 3.8l-100.7 100.8c-5.1 5.1-5.1 13.3 0 18.4 5.1 5.1 13.3 5.1 18.4 0l100.8-100.8c5.1-5.1 5.1-13.3 0-18.4-2.6-2.5-5.9-3.8-9.3-3.8zM691.4 152.7c-7.2 0-13 5.8-13 13v163.2c0 3.4 1.4 6.8 3.8 9.2l100.8 100.8c5.1 5.1 13.3 5.1 18.4 0s5.1-13.3 0-18.4l-97-97v-157.8c0-7.2-5.8-13-13-13zM768.8 291.9h-154.7c-7.2 0-13 5.8-13 13s5.8 13 13 13h154.8c7.2 0 13-5.8 13-13s-5.9-13-13.1-13zM768.8 234.3h-154.7c-7.2 0-13 5.8-13 13s5.8 13 13 13h154.8c7.2 0 13-5.8 13-13s-5.9-13-13.1-13z"  horiz-adv-x="1024" />

    
    <glyph glyph-name="jiadian1" unicode="&#58926;" d="M649.4 328h-56c-15.5 0-28-12.5-28-28s12.5-28 28-28h56c15.5 0 28 12.5 28 28s-12.5 28-28 28zM593.4 496h56c15.5 0 28 12.5 28 28s-12.5 28-28 28h-56c-15.5 0-28-12.5-28-28s12.5-28 28-28zM876 832H540c-21.5 0-41.1-8.4-56-21.8C469.1 823.6 449.7 832 428 832H148c-46.3 0-84-37.7-84-84v-728c0-46.3 37.7-84 84-84h280c21.7 0 41.1 8.4 56 21.8 14.9-13.4 34.5-21.8 56-21.8h336c46.4 0 84 37.7 84 84V748c0 46.3-37.6 84-84 84z m-336-56h336c15.5 0 28-12.6 28-28v-308H512V748c0 15.4 12.6 28 28 28zM120 604.5h336v-56H120v56zM148 776h280c15.5 0 28-12.6 28-28v-87.5H120V748c0 15.4 12.6 28 28 28z m280-784H148c-15.4 0-28 12.6-28 28V492.5h336V20c0-15.5-12.5-28-28-28z m448 0H540c-15.4 0-28 12.6-28 28V384h392v-364c0-15.5-12.5-28-28-28z"  horiz-adv-x="1024" />

    
    <glyph glyph-name="diannao" unicode="&#58903;" d="M916.095 831.532h-806.58c-38.815 0-70.393-31.578-70.393-70.394v-582.53c0-38.815 31.578-70.392 70.393-70.392h332.897V-19.86H333.565c-14.129 0-25.583-11.454-25.583-25.583s11.454-25.582 25.583-25.582h358.48c14.13 0 25.583 11.454 25.583 25.582s-11.453 25.583-25.582 25.583H583.199V108.216h332.896c38.815 0 70.393 31.577 70.393 70.392V761.14c0 38.815-31.578 70.393-70.393 70.393z m-806.58-51.166h806.58c10.602 0 19.227-8.625 19.227-19.228V293.81H90.287V761.14c0 10.601 8.627 19.226 19.228 19.226z m422.518-800.225h-38.456V108.216h38.456V-19.86z m384.062 179.24h-806.58c-10.601 0-19.228 8.626-19.228 19.227v64.038h845.035v-64.038c0-10.601-8.624-19.227-19.227-19.227z"  horiz-adv-x="1024" />

    
    <glyph glyph-name="qiangdan" unicode="&#58927;" d="M269.633136 699.413544h457.804076c45.780408 0 80.788955-35.008547 80.788955-80.788955v-430.874425c0-45.780408-35.008547-80.788955-80.788955-80.788954h-457.804076c-45.780408 0-80.788955 35.008547-80.788955 80.788954v430.874425c0 43.087442 35.008547 80.788955 80.788955 80.788955zM840.541749 896h-670.548324c-56.552268 0-102.332676-45.780408-102.332675-102.332676V-100.397107c0-16.157791 13.464826-26.929652 26.929651-26.929652h10.771861c5.38593 0 13.464826 2.692965 16.157791 5.385931l115.797501 91.560815 115.797502-91.560815c10.771861-8.078895 24.236686-8.078895 35.008547 0l118.490467 94.25378 115.797501-91.560815c10.771861-8.078895 24.236686-8.078895 35.008547 0l115.797502 91.560815 115.797502-91.560815c5.38593-5.38593 10.771861-5.38593 18.850756-5.385931h8.078895c16.157791 0 26.929652 13.464826 26.929652 26.929652v894.064431c0 53.859303-45.780408 99.639711-102.332676 99.639711z m45.780407-945.230769l-99.63971 78.095989c-10.771861 8.078895-24.236686 8.078895-35.008547 0l-115.797502-91.560815-115.797502 91.560815c-10.771861 8.078895-24.236686 8.078895-35.008547 0l-118.490466-94.25378-115.797502 91.560815c-10.771861 8.078895-24.236686 8.078895-35.008547 0l-96.946746-75.403024v842.898093c0 26.929652 21.543721 45.780408 45.780408 45.780408h670.548324c26.929652 0 45.780408-21.543721 45.780407-45.780408l5.38593-842.898093zM743.595003 578.230112H256.16831c-8.078895 0-16.157791-8.078895-16.157791-16.157791v-26.929652c0-8.078895 8.078895-16.157791 16.157791-16.157791h487.426693c8.078895 0 16.157791 8.078895 16.157791 16.157791v26.929652c0 8.078895-8.078895 16.157791-16.157791 16.157791zM256.16831 680.562788h350.08547c8.078895 0 16.157791 8.078895 16.157791 16.157791v26.929651c0 8.078895-8.078895 16.157791-16.157791 16.157791h-350.08547c-8.078895 0-16.157791-8.078895-16.157791-16.157791v-26.929651c-2.692965-8.078895 5.38593-16.157791 16.157791-16.157791zM743.595003 413.959237H256.16831c-8.078895 0-16.157791-8.078895-16.157791-16.157791v-26.929651c0-8.078895 8.078895-16.157791 16.157791-16.157791h487.426693c8.078895 0 16.157791 8.078895 16.157791 16.157791v26.929651c0 10.771861-8.078895 16.157791-16.157791 16.157791zM743.595003 252.381328H256.16831c-8.078895 0-16.157791-8.078895-16.157791-16.157791v-26.929651c0-8.078895 8.078895-16.157791 16.157791-16.157791h487.426693c8.078895 0 16.157791 8.078895 16.157791 16.157791v26.929651c0 8.078895-8.078895 16.157791-16.157791 16.157791z"  horiz-adv-x="1024" />

    
    <glyph glyph-name="fushi" unicode="&#58959;" d="M938.680822 557.168991L724.251102 771.004171c-10.714016 10.682293-24.956392 16.564257-40.102347 16.564258s-29.387307-5.882987-40.1003-16.564258l-30.376844-31.634488H406.258701l-30.337959 32.238239c-10.710946 10.682293-24.951275 16.564257-40.101324 16.564257-15.149025 0-29.390377-5.882987-40.101323-16.564257L81.287351 557.774789c-22.1116-22.052249-22.1116-57.929364 0-79.979566l147.545404-147.136082c0.778736-0.775666 17.962094-17.565051 18.816555-18.317181 0 0-0.308015-267.693832 0-280.617165 1.3743-31.825846 17.47193-48.863894 48.803519-48.802496H735.679385c31.593556 0 36.602639 5.098111 36.60264 36.602639V312.342983c0.854461 0.753153 18.076704 16.938788 18.854416 17.714454l147.544381 147.134035c10.710946 10.68127 16.61133 24.882714 16.61133 39.98876 0 15.105023-5.89936 29.30749-16.61133 39.988759zM564.869115 690.567187l-29.071106-27.510563h-51.02l-29.714766 27.510563H564.869115z m341.621564-183.012173l-149.132552-156.043962c-0.112564-0.112564-0.367367-0.354064-0.811482-0.703012-9.91993-7.825222-20.86726-13.651928-20.86726-26.263153v-292.819069c-1.581008-5.385661-14.07046-10.714016-12.221346-12.17939 0.070608-0.007163 0.090051-0.013303 0.020467-0.020467-0.00921 0.00614-0.01228 0.014326-0.020467 0.020467-5.471618 0.51984-427.006234-0.020466-427.006233-0.020467-5.263887 0-12.20088 6.950296-12.20088 12.199857V312.342983c0 12.615319-10.908444 31.247678-20.826328 39.066761a9.225105 9.225105 0 0 0-0.827855 0.719384L113.440655 507.555014c-3.494591 3.485381-1.885953 13.065574 1.609661 16.551977l214.429721 226.034013c2.286066 2.27788 4.953825 2.619664 6.340405 2.619664 1.38658 0 4.054339-0.340761 6.339382-2.61864L479.463979 617.361909h61.003376l137.343042 132.173298c2.286066 2.278903 4.953825 2.618641 6.340405 2.618641 1.385557 0 4.053316-0.340761 6.337335-2.617618l214.430744-226.036059a8.884344 8.884344 0 0 0 2.62785-6.319939c0.001023-1.382487 1.230014-7.345292-1.056052-9.625218z"  horiz-adv-x="1024" />

    
    <glyph glyph-name="qq1" unicode="&#58880;" d="M512.178 830.547c-246.739 0-446.697-199.996-446.697-446.736 0-246.74 199.958-446.723 446.697-446.723 246.714 0 446.697 199.984 446.697 446.723-0 246.739-199.984 446.736-446.697 446.736v0zM758.121 244.57c-11.522-10.753-31.334 0.974-50.375 27.329-8.263-22.325-19.041-42.881-31.538-61.357 26.92-9.623 44.216-24.611 44.216-41.547 0-29.229-51.709-52.89-115.556-52.89-37.903 0-71.365 8.289-92.511 21.17-20.94-12.882-54.609-21.17-92.485-21.17-63.847 0-115.581 23.66-115.581 52.89 0 16.732 17.322 31.923 44.242 41.547-12.678 18.45-23.25 39.032-31.538 61.357-19.041-26.15-38.826-38.082-50.374-27.329-15.782 14.807-9.803 67.132 13.652 116.736 5.389 11.342 11.137 21.53 17.091 30.384 3.284 144.233 98.284 260.006 214.816 260.006h0.385c116.531 0 211.532-115.581 214.79-260.006 5.954-8.854 11.753-19.041 17.117-30.384 23.275-49.604 29.433-101.928 13.652-116.736v0zM758.121 244.57z"  horiz-adv-x="1024" />

    
    </font>
</defs>
</svg>
